<?xml version="1.0" encoding="utf-8"?>
<!-- Generator: Adobe Illustrator 26.2.1, SVG Export Plug-In . SVG Version: 6.00 Build 0)  -->
<svg version="1.1" id="icon" xmlns="http://www.w3.org/2000/svg" xmlns:xlink="http://www.w3.org/1999/xlink" x="0px" y="0px"
	 viewBox="0 0 512 512" style="enable-background:new 0 0 512 512;" xml:space="preserve">
<style type="text/css">
	.st0{fill:#FFFFFF;}
</style>
<g>
	<g>
		<path class="st0" d="M256,42.7c-94.1,0-170.7,76.6-170.7,170.7c0,89.9,70.4,256,170.7,256s170.7-166.1,170.7-256
			C426.7,119.2,350.1,42.7,256,42.7z M256,426.7c-64.8,0-128-135-128-213.3c0-70.6,57.4-128,128-128s128,57.4,128,128
			C384,291.7,320.8,426.7,256,426.7z"/>
		<path class="st0" d="M153.7,196.5c-10.2,10.5-1.9,36.2,18.5,57.2c20.4,21.1,45.2,29.6,55.4,19.1c10.2-10.5,1.9-36.2-18.5-57.2
			C188.7,194.5,163.9,186,153.7,196.5z"/>
		<path class="st0" d="M358.3,196.5c-10.2-10.5-35-2-55.4,19.1s-28.7,46.7-18.5,57.2s35,2,55.4-19.1
			C360.2,232.7,368.5,207,358.3,196.5z"/>
	</g>
</g>
</svg>
