<?xml version="1.0" encoding="utf-8"?>
<!-- Generator: Adobe Illustrator 26.2.1, SVG Export Plug-In . SVG Version: 6.00 Build 0)  -->
<svg version="1.1" id="icon" xmlns="http://www.w3.org/2000/svg" xmlns:xlink="http://www.w3.org/1999/xlink" x="0px" y="0px"
	 viewBox="0 0 512 512" style="enable-background:new 0 0 512 512;" xml:space="preserve">
<style type="text/css">
	.st0{fill:#FFFFFF;}
</style>
<g>
	<path class="st0" d="M284.3,44.5C218,35.9,153,57.8,105.9,104.4S36.3,215.8,44.2,282.1c12.1,101.5,98.4,181.9,200.9,187
		c3.7,0.2,7.3,0.3,11,0.3c41.7,0,81.9-12,116.8-34.9c9.8-6.5,12.6-19.7,6.1-29.5c-6.4-9.8-19.6-12.6-29.5-6.1
		c-30.4,19.9-65.9,29.4-102.3,27.6c-81.9-4.1-151-68.3-160.6-149.4c-6.3-53.1,11.7-105,49.3-142.3c37.7-37.3,89.8-54.8,142.9-47.9
		c84.3,10.9,147.9,86.6,147.9,176.1v25c0,17.6-14.4,32-32,32s-32-14.4-32-32V170.7c0-11.8-9.5-21.3-21.3-21.3s-21.3,9.6-21.3,21.3
		v0.5c-17.9-13.5-39.9-21.9-64-21.9c-58.8,0-106.7,47.9-106.7,106.7S197.2,362.7,256,362.7c30.2,0,57.3-12.7,76.8-33
		c13.4,19.9,36.2,33,61.9,33c41.2,0,74.7-33.5,74.7-74.7v-25.1C469.3,152,389.8,58.1,284.3,44.5z M256,320c-35.3,0-64-28.7-64-64
		s28.7-64,64-64s64,28.7,64,64S291.3,320,256,320z"/>
</g>
</svg>
