<?xml version="1.0" encoding="utf-8"?>
<!-- Generator: Adobe Illustrator 26.2.1, SVG Export Plug-In . SVG Version: 6.00 Build 0)  -->
<svg version="1.1" id="icon" xmlns="http://www.w3.org/2000/svg" xmlns:xlink="http://www.w3.org/1999/xlink" x="0px" y="0px"
	 viewBox="0 0 512 512" style="enable-background:new 0 0 512 512;" xml:space="preserve">
<style type="text/css">
	.st0{fill:#FFFFFF;}
</style>
<g>
	<g>
		<path class="st0" d="M182.4,448.1c-23.7,0-46-9.2-62.7-26c-16.8-16.8-26-39-26-62.7s9.2-46,26-62.7L269,147.3
			c20.8-20.8,57-20.8,77.8,0c21.4,21.5,21.4,56.4,0,77.8L197.5,374.5c-8.3,8.3-21.8,8.3-30.2,0c-8.3-8.3-8.3-21.8,0-30.2L316.7,195
			c4.8-4.8,4.8-12.7,0-17.5c-4.6-4.6-12.8-4.7-17.5,0L149.8,326.8c-8.7,8.7-13.5,20.3-13.5,32.6c0,12.3,4.8,23.9,13.5,32.6
			c17.4,17.4,47.7,17.4,65.1,0l149.4-149.4c15.1-15.1,23.4-35.1,23.4-56.4s-8.3-41.3-23.4-56.4c-31.1-31.1-81.7-31.1-112.8,0
			L118.1,263.3c-8.3,8.3-21.8,8.3-30.2,0c-8.3-8.3-8.3-21.8,0-30.2L221.4,99.7c47.7-47.8,125.4-47.7,173.1,0
			c23.1,23.1,35.9,53.9,35.9,86.6s-12.7,63.4-35.9,86.6L245.1,422.1C228.4,438.9,206.1,448.1,182.4,448.1z"/>
	</g>
</g>
</svg>
