<?xml version="1.0" encoding="utf-8"?>
<!-- Generator: Adobe Illustrator 26.2.1, SVG Export Plug-In . SVG Version: 6.00 Build 0)  -->
<svg version="1.1" id="avatar" xmlns="http://www.w3.org/2000/svg" xmlns:xlink="http://www.w3.org/1999/xlink" x="0px" y="0px"
	 viewBox="0 0 512 512" style="enable-background:new 0 0 512 512;" xml:space="preserve">
<style type="text/css">
	.st0{fill:#FFFFFF;}
</style>
<g>
	<g>
		<path class="st0" d="M469.3,256c0-117.6-95.7-213.3-213.3-213.3C138.4,42.7,42.7,138.4,42.7,256c0,68.2,32.3,128.9,82.3,168
			c0.4,0.3,0.6,0.8,1,1c0.3,0.2,0.6,0.2,0.9,0.4c35.9,27.4,80.6,43.9,129.1,43.9s93.1-16.5,129-43.8c0.3-0.2,0.7-0.3,1-0.5
			c0.4-0.3,0.6-0.7,1-1C437,385,469.3,324.2,469.3,256z M85.3,256c0-94.1,76.6-170.7,170.7-170.7S426.7,161.9,426.7,256
			c0,47-19.1,89.6-49.9,120.4C345,340.4,302.1,320,256,320c-46,0-88.9,20.4-120.8,56.4C104.4,345.5,85.3,303,85.3,256z M169.1,402.6
			c23.5-25.5,54.2-40,86.9-40s63.3,14.5,86.9,40c-25.5,15.2-55.1,24-86.9,24C224.3,426.7,194.6,417.8,169.1,402.6z"/>
		<path class="st0" d="M256,298.7c47.1,0,85.3-38.3,85.3-85.3S303.1,128,256,128s-85.3,38.3-85.3,85.3S208.9,298.7,256,298.7z
			 M256,170.7c23.5,0,42.7,19.1,42.7,42.7S279.5,256,256,256s-42.7-19.1-42.7-42.7S232.5,170.7,256,170.7z"/>
	</g>
</g>
</svg>
