<?xml version="1.0" encoding="utf-8"?>
<!-- Generator: Adobe Illustrator 26.2.1, SVG Export Plug-In . SVG Version: 6.00 Build 0)  -->
<svg version="1.1" id="bank" xmlns="http://www.w3.org/2000/svg" xmlns:xlink="http://www.w3.org/1999/xlink" x="0px" y="0px"
	 viewBox="0 0 512 512" style="enable-background:new 0 0 512 512;" xml:space="preserve">
<style type="text/css">
	.st0{fill:#FFFFFF;}
</style>
<g>
	<path class="st0" d="M426.7,213.3c11.8,0,21.3-9.6,21.3-21.3v-64c0-9.8-6.7-18.3-16.2-20.7L261.2,64.6c-3.4-0.9-7-0.9-10.4,0
		L80.2,107.3C70.7,109.7,64,118.2,64,128v64c0,11.8,9.6,21.3,21.3,21.3h21.3v128H85.3c-11.8,0-21.3,9.5-21.3,21.3v64
		c0,11.8,9.6,21.3,21.3,21.3h341.3c11.8,0,21.3-9.5,21.3-21.3v-64c0-11.8-9.5-21.3-21.3-21.3h-21.3v-128L426.7,213.3L426.7,213.3z
		 M106.7,144.7L256,107.3l149.3,37.3v26H106.7V144.7z M234.7,341.3v-128h42.7v128H234.7z M149.3,213.3H192v128h-42.7V213.3z
		 M405.3,405.3H106.7V384h298.7v21.3H405.3z M362.7,341.3H320v-128h42.7V341.3z"/>
</g>
</svg>
