<?xml version="1.0" encoding="utf-8"?>
<!-- Generator: Adobe Illustrator 26.2.1, SVG Export Plug-In . SVG Version: 6.00 Build 0)  -->
<svg version="1.1" id="icon" xmlns="http://www.w3.org/2000/svg" xmlns:xlink="http://www.w3.org/1999/xlink" x="0px" y="0px"
	 viewBox="0 0 512 512" style="enable-background:new 0 0 512 512;" xml:space="preserve">
<style type="text/css">
	.st0{fill:#FFFFFF;}
</style>
<g>
	<g>
		<path class="st0" d="M128,192c-11.8,0-21.3,9.6-21.3,21.3v85.3c0,11.8,9.6,21.3,21.3,21.3s21.3-9.5,21.3-21.3v-85.3
			C149.3,201.6,139.8,192,128,192z"/>
		<path class="st0" d="M192,192c-11.8,0-21.3,9.6-21.3,21.3v85.3c0,11.8,9.6,21.3,21.3,21.3s21.3-9.5,21.3-21.3v-85.3
			C213.3,201.6,203.8,192,192,192z"/>
		<path class="st0" d="M256,192c-11.8,0-21.3,9.6-21.3,21.3v85.3c0,11.8,9.6,21.3,21.3,21.3c11.7,0,21.3-9.5,21.3-21.3v-85.3
			C277.3,201.6,267.8,192,256,192z"/>
		<path class="st0" d="M320,192c-11.8,0-21.3,9.6-21.3,21.3v85.3c0,11.8,9.5,21.3,21.3,21.3s21.3-9.5,21.3-21.3v-85.3
			C341.3,201.6,331.8,192,320,192z"/>
		<path class="st0" d="M448,192h-42.7v-42.7c0-11.8-9.5-21.3-21.3-21.3H64c-11.8,0-21.3,9.6-21.3,21.3v213.3
			c0,11.8,9.6,21.3,21.3,21.3h320c11.8,0,21.3-9.5,21.3-21.3V320H448c11.8,0,21.3-9.5,21.3-21.3v-85.3
			C469.3,201.6,459.8,192,448,192z M362.7,341.3H85.3V170.7h277.3v42.7v85.3v42.6H362.7z M426.7,277.3h-21.3v-42.7h21.3V277.3z"/>
	</g>
</g>
</svg>
