<?xml version="1.0" encoding="utf-8"?>
<!-- Generator: Adobe Illustrator 26.2.1, SVG Export Plug-In . SVG Version: 6.00 Build 0)  -->
<svg version="1.1" id="icon" xmlns="http://www.w3.org/2000/svg" xmlns:xlink="http://www.w3.org/1999/xlink" x="0px" y="0px"
	 viewBox="0 0 512 512" style="enable-background:new 0 0 512 512;" xml:space="preserve">
<style type="text/css">
	.st0{fill:#FFFFFF;}
</style>
<g>
	<path class="st0" d="M416.9,334.1L295.5,256l121.4-78c6.1-3.9,9.8-10.7,9.8-17.9c0-7.3-3.7-14-9.8-17.9l-149.3-96
		c-6.6-4.2-14.9-4.5-21.8-0.8c-6.9,3.7-11.1,10.9-11.1,18.7V217l-116.5-74.9c-9.9-6.4-23.1-3.5-29.5,6.4s-3.5,23.1,6.4,29.5
		l121.4,78L95.1,334.1c-9.9,6.4-12.8,19.6-6.4,29.5c4.1,6.3,10.9,9.8,18,9.8c3.9,0,7.9-1.1,11.5-3.4l116.5-74.9V448
		c0,7.8,4.3,15,11.1,18.7c3.2,1.7,6.7,2.6,10.2,2.6c4,0,8-1.1,11.5-3.4l149.3-96c6.1-3.9,9.8-10.7,9.8-17.9S423,338,416.9,334.1z
		 M277.3,103.1l88.6,56.9l-88.6,56.9V103.1z M277.3,408.9V295.1l88.6,56.9L277.3,408.9z"/>
</g>
</svg>
