<?xml version="1.0" encoding="utf-8"?>
<!-- Generator: Adobe Illustrator 26.2.1, SVG Export Plug-In . SVG Version: 6.00 Build 0)  -->
<svg version="1.1" id="Bookmark" xmlns="http://www.w3.org/2000/svg" xmlns:xlink="http://www.w3.org/1999/xlink" x="0px" y="0px"
	 viewBox="0 0 512 512" style="enable-background:new 0 0 512 512;" xml:space="preserve">
<style type="text/css">
	.st0{fill:#FFFFFF;}
</style>
<g>
	<g>
		<path class="st0" d="M405.3,469.3c-5,0-9.9-1.8-13.9-5.1L256,348.1L120.6,464.2c-6.3,5.4-15.2,6.7-22.8,3.2s-12.4-11-12.4-19.4
			V85.3c0-23.5,19.1-42.7,42.7-42.7h256c23.5,0,42.7,19.1,42.7,42.7V448c0,8.3-4.9,15.9-12.4,19.4
			C411.4,468.7,408.4,469.3,405.3,469.3z M256,298.7c4.9,0,9.9,1.7,13.9,5.1L384,401.6V85.3H128v316.3l114.1-97.8
			C246.1,300.4,251.1,298.7,256,298.7z"/>
	</g>
</g>
</svg>
