<?xml version="1.0" encoding="utf-8"?>
<!-- Generator: Adobe Illustrator 26.2.1, SVG Export Plug-In . SVG Version: 6.00 Build 0)  -->
<svg version="1.1" id="Heart" xmlns="http://www.w3.org/2000/svg" xmlns:xlink="http://www.w3.org/1999/xlink" x="0px" y="0px"
	 viewBox="0 0 512 512" style="enable-background:new 0 0 512 512;" xml:space="preserve">
<style type="text/css">
	.st0{fill:#FFFFFF;}
</style>
<g>
	<g>
		<path class="st0" d="M405.3,234.7v-21.3c0-11.8-9.5-21.3-21.3-21.3H277.3v-27.3c12.7-7.4,21.3-21,21.3-36.7
			c0-23.5-19.1-42.7-42.7-42.7c-23.5,0-42.7,19.1-42.7,42.7c0,15.7,8.6,29.3,21.3,36.7V192H128c-11.8,0-21.3,9.6-21.3,21.3v21.3
			c-35.3,0-64,28.7-64,64s28.7,64,64,64v42.7c0,11.8,9.6,21.3,21.3,21.3h256c11.8,0,21.3-9.5,21.3-21.3v-42.7c35.3,0,64-28.7,64-64
			S440.6,234.7,405.3,234.7z M85.3,298.7c0-11.8,9.6-21.3,21.3-21.3V320C94.9,320,85.3,310.4,85.3,298.7z M362.7,384H149.3V234.7
			h213.3V384H362.7z M405.3,320v-42.7c11.8,0,21.3,9.6,21.3,21.3C426.7,310.4,417.1,320,405.3,320z"/>
		<circle class="st0" cx="192" cy="277.3" r="21.3"/>
		<circle class="st0" cx="320" cy="277.3" r="21.3"/>
		<path class="st0" d="M277.3,320h-42.7c-11.8,0-21.3,9.5-21.3,21.3s9.6,21.3,21.3,21.3h42.7c11.8,0,21.3-9.5,21.3-21.3
			C298.7,329.5,289.1,320,277.3,320z"/>
	</g>
</g>
</svg>
