<?xml version="1.0" encoding="utf-8"?>
<!-- Generator: Adobe Illustrator 26.2.1, SVG Export Plug-In . SVG Version: 6.00 Build 0)  -->
<svg version="1.1" id="icon" xmlns="http://www.w3.org/2000/svg" xmlns:xlink="http://www.w3.org/1999/xlink" x="0px" y="0px"
	 viewBox="0 0 512 512" style="enable-background:new 0 0 512 512;" xml:space="preserve">
<style type="text/css">
	.st0{fill:#FFFFFF;}
</style>
<g>
	<g>
		<path class="st0" d="M426.7,64h-128h-85.3h-128C73.6,64,64,73.6,64,85.3v341.3c0,11.8,9.6,21.3,21.3,21.3h341.3
			c11.8,0,21.3-9.5,21.3-21.3V85.3C448,73.6,438.5,64,426.7,64z M405.3,149.3H320v-42.7h85.3V149.3z M277.3,106.7v106.7h-42.7V106.7
			H277.3z M192,106.7v42.7h-85.3v-42.7H192z M106.7,405.3V192H192v42.7c0,11.8,9.6,21.3,21.3,21.3h85.3c11.8,0,21.3-9.6,21.3-21.3
			V192h85.3v213.3H106.7z"/>
		<path class="st0" d="M149.3,320h64c11.8,0,21.3-9.5,21.3-21.3s-9.6-21.3-21.3-21.3h-64c-11.8,0-21.3,9.5-21.3,21.3
			S137.6,320,149.3,320z"/>
		<path class="st0" d="M256,341.3H149.3c-11.8,0-21.3,9.5-21.3,21.3s9.6,21.3,21.3,21.3H256c11.8,0,21.3-9.5,21.3-21.3
			C277.3,350.9,267.8,341.3,256,341.3z"/>
	</g>
</g>
</svg>
