<?xml version="1.0" encoding="utf-8"?>
<!-- Generator: Adobe Illustrator 26.2.1, SVG Export Plug-In . SVG Version: 6.00 Build 0)  -->
<svg version="1.1" id="tree" xmlns="http://www.w3.org/2000/svg" xmlns:xlink="http://www.w3.org/1999/xlink" x="0px" y="0px"
	 viewBox="0 0 512 512" style="enable-background:new 0 0 512 512;" xml:space="preserve">
<style type="text/css">
	.st0{fill:#FFFFFF;}
</style>
<g>
	<g>
		<path class="st0" d="M170.7,192H256c11.8,0,21.3-9.6,21.3-21.3s-9.6-21.3-21.3-21.3h-85.3c-11.8,0-21.3,9.6-21.3,21.3
			S158.9,192,170.7,192z"/>
		<path class="st0" d="M170.7,256H256c11.8,0,21.3-9.6,21.3-21.3s-9.6-21.3-21.3-21.3h-85.3c-11.8,0-21.3,9.6-21.3,21.3
			S158.9,256,170.7,256z"/>
		<path class="st0" d="M256,277.3h-85.3c-11.8,0-21.3,9.5-21.3,21.3s9.6,21.3,21.3,21.3H256c11.8,0,21.3-9.5,21.3-21.3
			C277.3,286.9,267.8,277.3,256,277.3z"/>
		<path class="st0" d="M410.5,235.3L341.3,218V106.7c0-10.2-7.2-18.9-17.1-20.9L110.9,43.1c-6.3-1.3-12.8,0.4-17.7,4.4
			c-4.9,4.1-7.8,10.1-7.8,16.5v256v128c0,11.8,9.6,21.3,21.3,21.3h64c11.8,0,21.3-9.5,21.3-21.3v-64h42.7v64
			c0,11.8,9.6,21.3,21.3,21.3h64h85.3c11.8,0,21.3-9.5,21.3-21.3V256C426.7,246.2,420,237.7,410.5,235.3z M256,341.3h-85.3
			c-11.8,0-21.3,9.5-21.3,21.3v64H128V320V90l170.7,34.1v110.5v192h-21.3v-64C277.3,350.9,267.8,341.3,256,341.3z M384,426.7h-42.7
			V262l42.7,10.7v26c-11.8,0-21.3,9.5-21.3,21.3s9.5,21.3,21.3,21.3v21.3c-11.8,0-21.3,9.5-21.3,21.3s9.5,21.3,21.3,21.3V426.7z"/>
	</g>
</g>
</svg>
