<?xml version="1.0" encoding="utf-8"?>
<!-- Generator: Adobe Illustrator 26.2.1, SVG Export Plug-In . SVG Version: 6.00 Build 0)  -->
<svg version="1.1" id="timer" xmlns="http://www.w3.org/2000/svg" xmlns:xlink="http://www.w3.org/1999/xlink" x="0px" y="0px"
	 viewBox="0 0 512 512" style="enable-background:new 0 0 512 512;" xml:space="preserve">
<style type="text/css">
	.st0{fill:#FFFFFF;}
</style>
<g>
	<g>
		<path class="st0" d="M288,405.3h-64c-23.5,0-42.7-19.1-42.7-42.7v-42.4c-46.1-25.6-74.7-75.2-74.7-128.3
			c0-45.2,20.2-87.4,55.3-116c35.1-28.5,81-39.4,126-30c55.5,11.6,101.1,56.5,113.5,111.7l0,0c14.6,64.6-13.6,130.1-70.1,163.1
			l-0.7,41.8C330.7,386.2,311.5,405.3,288,405.3z M256.3,85.4c-24.5,0-48.3,8.2-67.4,23.8c-25.1,20.4-39.5,50.6-39.5,82.8
			c0,37.9,20.4,73.3,53.3,92.3c13.4,7.8,21.4,21.2,21.4,36v42.4h64V321c0-15.1,8.2-29,21.8-37c40.4-23.6,60.5-70.6,50-116.9l0,0
			c-8.8-39.2-41.2-71.1-80.6-79.4C271.6,86.2,263.9,85.4,256.3,85.4z"/>
	</g>
	<g>
		<path class="st0" d="M309.3,469.3H202.7c-11.8,0-21.3-9.5-21.3-21.3s9.6-21.3,21.3-21.3h106.7c11.8,0,21.3,9.5,21.3,21.3
			S321.1,469.3,309.3,469.3z"/>
	</g>
</g>
</svg>
