<?xml version="1.0" encoding="utf-8"?>
<!-- Generator: Adobe Illustrator 26.2.1, SVG Export Plug-In . SVG Version: 6.00 Build 0)  -->
<svg version="1.1" id="icon" xmlns="http://www.w3.org/2000/svg" xmlns:xlink="http://www.w3.org/1999/xlink" x="0px" y="0px"
	 viewBox="0 0 512 512" style="enable-background:new 0 0 512 512;" xml:space="preserve">
<style type="text/css">
	.st0{fill:#FFFFFF;}
</style>
<g>
	<g>
		<path class="st0" d="M405.2,64H106.8C83.2,64,64,83.2,64,106.8v298.3c0,23.6,19.2,42.8,42.8,42.8h298.3
			c23.6,0,42.8-19.2,42.8-42.8V106.8C448,83.2,428.8,64,405.2,64z M405.2,405.3L405.2,405.3l-298.6-0.2l0.2-298.5l298.5,0.2
			L405.2,405.3z"/>
		<path class="st0" d="M149.3,202.7H160v10.7c0,11.8,9.6,21.3,21.3,21.3s21.3-9.6,21.3-21.3v-10.7h10.7c11.8,0,21.3-9.6,21.3-21.3
			s-9.6-21.3-21.3-21.3h-10.7v-10.7c0-11.8-9.6-21.3-21.3-21.3s-21.3,9.6-21.3,21.3V160h-10.7c-11.8,0-21.3,9.6-21.3,21.3
			S137.6,202.7,149.3,202.7z"/>
		<path class="st0" d="M134.2,377.8c4.2,4.2,9.6,6.2,15.1,6.2s10.9-2.1,15.1-6.2l16.9-16.9l16.9,16.9c4.2,4.2,9.6,6.2,15.1,6.2
			s10.9-2.1,15.1-6.2c8.3-8.3,8.3-21.8,0-30.2l-16.9-16.9l16.9-16.9c8.3-8.3,8.3-21.8,0-30.2c-8.3-8.3-21.8-8.3-30.2,0l-16.9,16.9
			l-16.9-16.9c-8.3-8.3-21.8-8.3-30.2,0c-8.3,8.3-8.3,21.8,0,30.2l16.9,16.9l-16.9,16.9C125.9,355.9,125.9,369.4,134.2,377.8z"/>
		<path class="st0" d="M298.7,202.7h64c11.8,0,21.3-9.6,21.3-21.3s-9.5-21.3-21.3-21.3h-64c-11.8,0-21.3,9.6-21.3,21.3
			S286.9,202.7,298.7,202.7z"/>
		<path class="st0" d="M298.7,320h64c11.8,0,21.3-9.5,21.3-21.3s-9.5-21.3-21.3-21.3h-64c-11.8,0-21.3,9.5-21.3,21.3
			C277.3,310.5,286.9,320,298.7,320z"/>
		<path class="st0" d="M298.7,384h64c11.8,0,21.3-9.5,21.3-21.3s-9.5-21.3-21.3-21.3h-64c-11.8,0-21.3,9.5-21.3,21.3
			C277.3,374.5,286.9,384,298.7,384z"/>
	</g>
</g>
</svg>
