<?xml version="1.0" encoding="utf-8"?>
<!-- Generator: Adobe Illustrator 26.2.1, SVG Export Plug-In . SVG Version: 6.00 Build 0)  -->
<svg version="1.1" id="crown" xmlns="http://www.w3.org/2000/svg" xmlns:xlink="http://www.w3.org/1999/xlink" x="0px" y="0px"
	 viewBox="0 0 512 512" style="enable-background:new 0 0 512 512;" xml:space="preserve">
<style type="text/css">
	.st0{fill:#FFFFFF;}
</style>
<g>
	<path class="st0" d="M404.6,85.3h-31.2c0-11.8-9.5-21.3-21.3-21.3s-21.3,9.6-21.3,21.3H181.3c0-11.8-9.6-21.3-21.3-21.3
		s-21.3,9.6-21.3,21.3h-31.3c-23.9,0-43.4,19.5-43.4,43.4v275.8c0,23.9,19.5,43.4,43.4,43.4h297.2c23.9,0,43.4-19.5,43.4-43.4V128.8
		C448,104.8,428.5,85.3,404.6,85.3z M138.7,128.1c0,11.7,9.6,21.3,21.3,21.3s21.2-9.5,21.3-21.1l149.5,0.4
		c0.3,11.5,9.6,20.8,21.2,20.8s20.8-9.2,21.2-20.7l32.1,0.1v41.9h-298l0.1-42.7L138.7,128.1z M404.6,405.3l-297.9-0.8l0.5-191.3
		h298.1v191.3C405.3,405,405,405.3,404.6,405.3z"/>
	<path class="st0" d="M270.1,244.8c-8-3.3-17.2-1.5-23.2,4.6L218,278.3c-8.3,8.3-8.3,21.8,0,30.2c6.1,6.1,15,7.8,22.6,4.9v40.8
		c0,11.8,9.6,21.3,21.3,21.3c11.8,0,21.3-9.5,21.3-21.3v-89.6C283.2,255.9,278,248.1,270.1,244.8z"/>
</g>
</svg>
