<?xml version="1.0" encoding="utf-8"?>
<!-- Generator: Adobe Illustrator 26.2.1, SVG Export Plug-In . SVG Version: 6.00 Build 0)  -->
<svg version="1.1" id="document" xmlns="http://www.w3.org/2000/svg" xmlns:xlink="http://www.w3.org/1999/xlink" x="0px" y="0px"
	 viewBox="0 0 512 512" style="enable-background:new 0 0 512 512;" xml:space="preserve">
<style type="text/css">
	.st0{fill:#FFFFFF;}
</style>
<g>
	<path class="st0" d="M427.3,128h-54v-7.9c0-19.2-15.6-34.8-34.8-34.8H173.4c-19.2,0-34.8,15.6-34.8,34.8v7.9h-54
		c-23.2,0-42,18.9-42,42v214.6c0,23.2,18.9,42,42,42h342.6c23.2,0,42-18.9,42-42V170C469.3,146.9,450.5,128,427.3,128z M85.3,384.6
		l-0.6-214H160c11.8,0,21.3-9.6,21.3-21.3V128h149.3v21.3c0,11.8,9.5,21.3,21.3,21.3h74.7l0.6,213.3L85.3,384.6z"/>
	<path class="st0" d="M256,181.3c-47.1,0-85.3,38.3-85.3,85.3c0,47.1,38.3,85.3,85.3,85.3c47.1,0,85.3-38.3,85.3-85.3
		S303.1,181.3,256,181.3z M256,309.3c-23.5,0-42.7-19.1-42.7-42.7c0-23.5,19.1-42.7,42.7-42.7c23.5,0,42.7,19.1,42.7,42.7
		C298.7,290.2,279.5,309.3,256,309.3z"/>
	<circle class="st0" cx="384" cy="213.3" r="21.3"/>
</g>
</svg>
