<?xml version="1.0" encoding="utf-8"?>
<!-- Generator: Adobe Illustrator 26.2.1, SVG Export Plug-In . SVG Version: 6.00 Build 0)  -->
<svg version="1.1" id="Caption" xmlns="http://www.w3.org/2000/svg" xmlns:xlink="http://www.w3.org/1999/xlink" x="0px" y="0px"
	 viewBox="0 0 512 512" style="enable-background:new 0 0 512 512;" xml:space="preserve">
<style type="text/css">
	.st0{fill:#FFFFFF;}
</style>
<g>
	<g>
		<path class="st0" d="M149.3,426.7c-3.4,0-6.9-0.8-10.1-2.5c-6.9-3.7-11.3-10.9-11.3-18.8V384H85.3c-23.5,0-42.7-19.1-42.7-42.7
			V128c0-23.5,19.1-42.7,42.7-42.7h341.3c23.5,0,42.7,19.1,42.7,42.7v213.3c0,23.5-19.1,42.7-42.7,42.7H219.8l-58.6,39.1
			C157.6,425.5,153.5,426.7,149.3,426.7z M85.3,128v213.3h64c11.8,0,21.3,9.5,21.3,21.3v2.8l30.8-20.6c3.5-2.3,7.6-3.6,11.8-3.6
			h213.4V127.9H85.3V128z"/>
	</g>
	<g>
		<g>
			<path class="st0" d="M224,309.3h-85.3c-11.8,0-21.3-9.5-21.3-21.3V181.3c0-11.8,9.6-21.3,21.3-21.3H224
				c11.8,0,21.3,9.6,21.3,21.3v21.3c0,11.8-9.6,21.3-21.3,21.3s-21.3-9.6-21.3-21.3H160v64h42.7c0-11.8,9.6-21.3,21.3-21.3
				s21.3,9.6,21.3,21.3V288C245.3,299.8,235.8,309.3,224,309.3z"/>
		</g>
		<g>
			<path class="st0" d="M373.3,309.3H288c-11.8,0-21.3-9.5-21.3-21.3V181.3c0-11.8,9.6-21.3,21.3-21.3h85.3
				c11.8,0,21.3,9.6,21.3,21.3v21.3c0,11.8-9.5,21.3-21.3,21.3s-21.3-9.6-21.3-21.3h-42.7v64H352c0-11.8,9.5-21.3,21.3-21.3
				s21.3,9.6,21.3,21.3V288C394.7,299.8,385.1,309.3,373.3,309.3z"/>
		</g>
	</g>
</g>
</svg>
