<?xml version="1.0" encoding="utf-8"?>
<!-- Generator: Adobe Illustrator 26.2.1, SVG Export Plug-In . SVG Version: 6.00 Build 0)  -->
<svg version="1.1" id="Download" xmlns="http://www.w3.org/2000/svg" xmlns:xlink="http://www.w3.org/1999/xlink" x="0px" y="0px"
	 viewBox="0 0 512 512" style="enable-background:new 0 0 512 512;" xml:space="preserve">
<style type="text/css">
	.st0{fill:#FFFFFF;}
</style>
<g>
	<g>
		<path class="st0" d="M149.3,298.3c-5.3,0-10.7-2-14.8-6.1L119.1,277h-13.5c-22.7,0-41.2-18.5-41.2-41.2V105.6
			c0-22.7,18.5-41.2,41.2-41.2h151.5c22.7,0,41.2,18.5,41.2,41.2v130.2c0,22.7-18.5,41.2-41.2,41.2h-77.7l-15.2,15.2
			C160.1,296.3,154.7,298.3,149.3,298.3z M106.3,235h21.4c5.5,0,10.8,2.2,14.8,6.1l6.7,6.7l6.6-6.6c3.9-3.9,9.3-6.2,14.8-6.2h85.7
			V106.3h-150L106.3,235L106.3,235z"/>
	</g>
	<g>
		<path class="st0" d="M362.7,447.7c-0.1,0-0.2,0-0.2,0c-5.6-0.1-10.9-2.4-14.8-6.4l-14.5-14.9H255c-22.7,0-41.2-18.5-41.2-41.2V320
			c0-11.6,9.4-21,21-21s21,9.4,21,21v64.3H342c5.7,0,11.1,2.3,15.1,6.4l5.9,6.1l6.5-6.5c3.9-3.9,9.2-6,14.7-6h21.4V255.7h-64.3
			c-11.6,0-21-9.4-21-21s9.4-21,21-21h65.1c22.7,0,41.2,18.5,41.2,41.2v130.2c0,22.7-18.5,41.2-41.2,41.2h-13.5l-15.5,15.3
			C373.5,445.5,368.2,447.7,362.7,447.7z M406.4,255.7L406.4,255.7L406.4,255.7z"/>
	</g>
</g>
</svg>
