<?xml version="1.0" encoding="utf-8"?>
<!-- Generator: Adobe Illustrator 26.2.1, SVG Export Plug-In . SVG Version: 6.00 Build 0)  -->
<svg version="1.1" id="check" xmlns="http://www.w3.org/2000/svg" xmlns:xlink="http://www.w3.org/1999/xlink" x="0px" y="0px"
	 viewBox="0 0 512 512" style="enable-background:new 0 0 512 512;" xml:space="preserve">
<style type="text/css">
	.st0{fill:#FFFFFF;}
</style>
<g>
	<g>
		<path class="st0" d="M256,469.3c-117.6,0-213.3-95.7-213.3-213.3S138.4,42.7,256,42.7S469.3,138.4,469.3,256
			S373.6,469.3,256,469.3z M256,85.3c-94.1,0-170.7,76.6-170.7,170.7S161.9,426.7,256,426.7S426.7,350.1,426.7,256
			S350.1,85.3,256,85.3z"/>
	</g>
	<g>
		<path class="st0" d="M225.6,330.5c-5.7,0-11.1-2.2-15.1-6.2l-45.6-45.6c-8.3-8.3-8.3-21.8,0-30.2c8.3-8.3,21.8-8.3,30.2,0
			l30.5,30.5l91.3-91.3c8.3-8.3,21.8-8.3,30.2,0c8.3,8.3,8.3,21.8,0,30.2L240.7,324.3C236.7,328.3,231.3,330.5,225.6,330.5z"/>
	</g>
</g>
</svg>
