<?xml version="1.0" encoding="utf-8"?>
<!-- Generator: Adobe Illustrator 26.2.1, SVG Export Plug-In . SVG Version: 6.00 Build 0)  -->
<svg version="1.1" id="clipboard" xmlns="http://www.w3.org/2000/svg" xmlns:xlink="http://www.w3.org/1999/xlink" x="0px" y="0px"
	 viewBox="0 0 512 512" style="enable-background:new 0 0 512 512;" xml:space="preserve">
<style type="text/css">
	.st0{fill:#FFFFFF;}
</style>
<g>
	<path class="st0" d="M384,85.3h-21.3c0-23.5-19.1-42.7-42.7-42.7H192c-23.5,0-42.7,19.1-42.7,42.7H128c-23.5,0-42.7,19.1-42.7,42.7
		v298.7c0,23.5,19.1,42.7,42.7,42.7h256c23.5,0,42.7-19.1,42.7-42.7V128C426.7,104.5,407.5,85.3,384,85.3z M192,85.3h128v21.3
		c0,0,0,0,0,0.1c0,0,0,0,0,0.1v21.3H192V85.3z M384,426.7H128V128h21.3c0,23.5,19.1,42.7,42.7,42.7h128c23.5,0,42.7-19.1,42.7-42.7
		H384V426.7z"/>
</g>
</svg>
