<?xml version="1.0" encoding="utf-8"?>
<!-- Generator: Adobe Illustrator 26.2.1, SVG Export Plug-In . SVG Version: 6.00 Build 0)  -->
<svg version="1.1" id="Heart" xmlns="http://www.w3.org/2000/svg" xmlns:xlink="http://www.w3.org/1999/xlink" x="0px" y="0px"
	 viewBox="0 0 512 512" style="enable-background:new 0 0 512 512;" xml:space="preserve">
<style type="text/css">
	.st0{fill:#FFFFFF;}
</style>
<g>
	<g>
		<path class="st0" d="M256,42.7C138.4,42.7,42.7,138.4,42.7,256S138.4,469.3,256,469.3S469.3,373.6,469.3,256S373.6,42.7,256,42.7z
			 M256,426.7c-94.1,0-170.7-76.6-170.7-170.7S161.9,85.3,256,85.3S426.7,161.9,426.7,256S350.1,426.7,256,426.7z"/>
		<path class="st0" d="M320,234.7h-42.7v-85.3c0-11.8-9.6-21.3-21.3-21.3s-21.3,9.6-21.3,21.3V256c0,11.8,9.6,21.3,21.3,21.3h64
			c11.8,0,21.3-9.6,21.3-21.3S331.8,234.7,320,234.7z"/>
	</g>
</g>
</svg>
