<?xml version="1.0" encoding="utf-8"?>
<!-- Generator: Adobe Illustrator 26.2.1, SVG Export Plug-In . SVG Version: 6.00 Build 0)  -->
<svg version="1.1" id="close" xmlns="http://www.w3.org/2000/svg" xmlns:xlink="http://www.w3.org/1999/xlink" x="0px" y="0px"
	 viewBox="0 0 512 512" style="enable-background:new 0 0 512 512;" xml:space="preserve">
<style type="text/css">
	.st0{fill:#FFFFFF;}
</style>
<g>
	<path class="st0" d="M286.2,256l155.6-155.6c8.3-8.3,8.3-21.8,0-30.2s-21.8-8.3-30.2,0L256,225.8L100.4,70.2
		c-8.3-8.3-21.8-8.3-30.2,0s-8.3,21.8,0,30.2L225.8,256L70.2,411.6c-8.3,8.3-8.3,21.8,0,30.2c4.2,4.2,9.6,6.2,15.1,6.2
		s10.9-2.1,15.1-6.2L256,286.2l155.6,155.6c4.2,4.2,9.6,6.2,15.1,6.2s10.9-2.1,15.1-6.2c8.3-8.3,8.3-21.8,0-30.2L286.2,256z"/>
</g>
</svg>
