<?xml version="1.0" encoding="utf-8"?>
<!-- Generator: Adobe Illustrator 26.2.1, SVG Export Plug-In . SVG Version: 6.00 Build 0)  -->
<svg version="1.1" id="icon" xmlns="http://www.w3.org/2000/svg" xmlns:xlink="http://www.w3.org/1999/xlink" x="0px" y="0px"
	 viewBox="0 0 512 512" style="enable-background:new 0 0 512 512;" xml:space="preserve">
<style type="text/css">
	.st0{fill:#FFFFFF;}
</style>
<g>
	<g>
		<path class="st0" d="M352,426.7H160c-64.7,0-117.3-52.6-117.3-117.3c0-31.6,12.2-61,34.5-83c2.5-2.6,5.3-5.2,8.3-7.7
			c-0.1-1.8-0.1-3.6-0.1-5.3c0-70.6,57.4-128,128-128c38.8,0,75.4,17.8,99.5,47.6c9.2-3.2,18.8-4.9,28.5-4.9
			c47.1,0,85.3,38.3,85.3,85.3c0,1.8-0.1,3.7-0.2,5.5c27.1,22,42.9,54.9,42.9,90.5c0,31.6-12.2,61-34.5,83
			C413,414.4,383.6,426.7,352,426.7z M213.3,128c-47.1,0-85.3,38.3-85.3,85.3c0,3.9,0.3,8,1,11.7c1.5,8.5-2.3,17.1-9.6,21.7
			c-4.5,2.8-8.4,6-11.8,9.5c-14.5,14.3-22.2,33-22.2,53.1c0,41.2,33.5,74.7,74.7,74.7h192c20.1,0,38.8-7.8,52.6-21.8
			c14.3-14.1,22-32.8,22-52.9c0-25.7-12.9-49.2-34.6-62.8c-7.9-4.9-11.6-14.4-9.3-23.4c0.8-3.2,1.2-6.5,1.2-9.8
			c0-23.5-19.1-42.7-42.7-42.7c-8.4,0-16.7,2.5-24,7.2c-4.9,3.2-10.9,4.2-16.6,2.8s-10.5-5-13.5-10C271.7,144,244.1,128,213.3,128z"
			/>
	</g>
</g>
</svg>
