<?xml version="1.0" encoding="utf-8"?>
<!-- Generator: Adobe Illustrator 26.2.1, SVG Export Plug-In . SVG Version: 6.00 Build 0)  -->
<svg version="1.1" id="coffee_cup" xmlns="http://www.w3.org/2000/svg" xmlns:xlink="http://www.w3.org/1999/xlink" x="0px" y="0px"
	 viewBox="0 0 512 512" style="enable-background:new 0 0 512 512;" xml:space="preserve">
<style type="text/css">
	.st0{fill:#FFFFFF;}
</style>
<g>
	<g>
		<path class="st0" d="M405.3,234.7h-42.7c0-23.5-19.1-42.7-42.7-42.7H205.2c18.8-58.9-15.7-97.9-17.4-99.8
			c-7.9-8.6-21.1-9.1-29.8-1.4c-8.7,7.8-9.5,21.2-1.8,30c2.6,3,23.5,29.2,3.2,71.1h-52.7C83.1,192,64,211.1,64,234.7v128
			c0,47.1,38.3,85.3,85.3,85.3h128c47.1,0,85.3-38.3,85.3-85.3h42.7c23.5,0,42.7-19.1,42.7-42.7v-42.7
			C448,253.8,428.9,234.7,405.3,234.7z M320,362.7c0,23.5-19.1,42.7-42.7,42.7h-128c-23.5,0-42.7-19.1-42.7-42.7v-128H320V256v85.3
			V362.7z M405.3,320h-42.7v-42.7h42.7V320z"/>
		<path class="st0" d="M231.4,148.8c-1.4,11.7,6.9,22.3,18.6,23.8c0.9,0.1,1.7,0.2,2.6,0.2c10.6,0,19.8-7.9,21.1-18.8
			c5.5-45.1-19.4-79.8-20.5-81.2c-6.9-9.5-20.3-11.6-29.8-4.6s-11.6,20.3-4.6,29.8C219,98.1,234.8,120.7,231.4,148.8z"/>
	</g>
</g>
</svg>
