<?xml version="1.0" encoding="utf-8"?>
<!-- Generator: Adobe Illustrator 26.2.1, SVG Export Plug-In . SVG Version: 6.00 Build 0)  -->
<svg version="1.1" id="cog" xmlns="http://www.w3.org/2000/svg" xmlns:xlink="http://www.w3.org/1999/xlink" x="0px" y="0px"
	 viewBox="0 0 512 512" style="enable-background:new 0 0 512 512;" xml:space="preserve">
<style type="text/css">
	.st0{fill:#FFFFFF;}
</style>
<g>
	<g>
		<path class="st0" d="M256,469.3c-10.7,0-22-1-34.5-3c-8.4-1.4-15.1-7.6-17.2-15.8l-13.6-53.3c-8.6-4-16.8-8.6-24.4-14l-53.1,14.9
			c-8.2,2.3-16.9-0.5-22.3-7c-14.5-17.7-26-37.8-34.3-59.8c-3-7.9-1-16.9,5-22.8L101,270c-0.5-4.9-0.7-9.5-0.7-14s0.2-9.2,0.7-14
			l-39.4-38.5c-6.1-5.9-8-14.9-5-22.8c8.3-22,19.9-42.1,34.3-59.8c5.4-6.5,14.1-9.3,22.2-7l53.1,14.9c7.6-5.4,15.8-10,24.4-14
			l13.6-53.3c2.1-8.2,8.9-14.4,17.2-15.8c24.9-4,44.1-4.1,68.9,0c8.4,1.4,15.1,7.6,17.2,15.8l13.6,53.3c8.6,4,16.8,8.6,24.4,14
			l53.1-14.9c8.1-2.3,16.9,0.5,22.2,7c14.5,17.7,26.1,37.8,34.4,59.8c3,7.9,1,16.9-5,22.8L411,242c0.5,4.8,0.7,9.5,0.7,14
			c0,4.6-0.2,9.2-0.7,14l39.4,38.5c6.1,5.9,8,14.9,5,22.8c-8.3,22-19.9,42.1-34.4,59.8c-5.3,6.6-14.1,9.4-22.2,7l-53.1-14.9
			c-7.6,5.4-15.8,10-24.4,14l-13.6,53.3c-2.1,8.2-8.9,14.4-17.2,15.8C278,468.4,266.8,469.3,256,469.3z M242,426
			c9.8,0.9,18.2,0.9,27.9,0l12.7-49.6c1.7-6.8,6.6-12.2,13.1-14.7c11.8-4.5,22.6-10.6,32-18.3c5.4-4.4,12.6-6,19.3-4.1l49.2,13.8
			c5.2-7.6,9.9-15.7,13.9-24.2l-36.6-35.8c-5-4.9-7.2-11.8-6.1-18.7c1.1-6.7,1.6-12.7,1.6-18.4c0-5.6-0.5-11.7-1.6-18.4
			c-1.1-6.9,1.2-13.8,6.1-18.7l36.6-35.8c-4-8.5-8.6-16.6-13.9-24.2L347,172.7c-6.7,1.9-13.9,0.4-19.3-4.1
			c-9.4-7.7-20.1-13.9-32-18.3c-6.5-2.5-11.4-7.9-13.1-14.7L270,86c-9.8-0.9-18.2-0.9-27.9,0l-12.7,49.6
			c-1.7,6.7-6.6,12.2-13.1,14.7c-11.8,4.5-22.6,10.6-31.9,18.3c-5.4,4.4-12.6,5.9-19.3,4.1l-49.3-13.8c-5.2,7.6-9.9,15.7-13.9,24.2
			l36.6,35.8c5,4.9,7.3,11.8,6.1,18.7c-1.1,6.8-1.6,12.8-1.6,18.4c0,5.6,0.5,11.6,1.6,18.4c1.1,6.9-1.2,13.8-6.1,18.7l-36.6,35.8
			c4,8.5,8.6,16.6,13.9,24.2l49.2-13.8c6.7-1.9,13.9-0.4,19.3,4.1c9.4,7.7,20.1,13.9,31.9,18.3c6.5,2.5,11.4,7.9,13.1,14.7L242,426z
			"/>
	</g>
	<g>
		<path class="st0" d="M256,320c-35.3,0-64-28.7-64-64s28.7-64,64-64s64,28.7,64,64S291.3,320,256,320z M256,234.7
			c-11.8,0-21.3,9.6-21.3,21.3c0,11.8,9.6,21.3,21.3,21.3c11.8,0,21.3-9.6,21.3-21.3C277.3,244.2,267.8,234.7,256,234.7z"/>
	</g>
</g>
</svg>
