<?xml version="1.0" encoding="utf-8"?>
<!-- Generator: Adobe Illustrator 26.2.1, SVG Export Plug-In . SVG Version: 6.00 Build 0)  -->
<svg version="1.1" id="icon" xmlns="http://www.w3.org/2000/svg" xmlns:xlink="http://www.w3.org/1999/xlink" x="0px" y="0px"
	 viewBox="0 0 512 512" style="enable-background:new 0 0 512 512;" xml:space="preserve">
<style type="text/css">
	.st0{fill:#FFFFFF;}
</style>
<g>
	<g>
		<path class="st0" d="M379.3,324.4l33.8-33.8c8.3-8.3,8.3-21.8,0-30.2L266.6,114l0,0l-44-44c-8.3-8.3-21.8-8.3-30.2,0
			c-8.3,8.3-8.3,21.8,0,30.2l14.2,14.2L77.2,243.8c-17.5,17.5-17.5,45.9,0,63.4l127.9,127.9c8.5,8.5,19.7,13.1,31.7,13.1
			s23.3-4.7,31.7-13.1L379.3,324.4C379.2,324.4,379.2,324.4,379.3,324.4z M107.4,274l129.4-129.4l131,131L355.3,288h-237l-10.9-10.9
			C106.6,276.2,106.6,274.8,107.4,274z M238.4,404.9c-0.8,0.8-2.4,0.7-3.1,0L161,330.7h151.6L238.4,404.9z"/>
		<path class="st0" d="M429.2,374.9c-6-8.7-20.3-8.7-26.3,0c-8.6,12.4-18.8,29.7-18.8,41.1c0,17.6,14.4,32,32,32s32-14.4,32-32
			C448,404.6,437.8,387.3,429.2,374.9z"/>
	</g>
</g>
</svg>
