<?xml version="1.0" encoding="utf-8"?>
<!-- Generator: Adobe Illustrator 26.2.1, SVG Export Plug-In . SVG Version: 6.00 Build 0)  -->
<svg version="1.1" id="icon" xmlns="http://www.w3.org/2000/svg" xmlns:xlink="http://www.w3.org/1999/xlink" x="0px" y="0px"
	 viewBox="0 0 512 512" style="enable-background:new 0 0 512 512;" xml:space="preserve">
<style type="text/css">
	.st0{fill:#FFFFFF;}
</style>
<g>
	<path class="st0" d="M369.8,291.6h-35.5v-71.1h35.5c43.1,0,78.2-35.1,78.2-78.2s-35.1-78.2-78.2-78.2s-78.2,35.1-78.2,78.2v35.6
		h-71.1v-35.6c0-43.1-35.1-78.2-78.2-78.2C99.1,64,64,99.1,64,142.2s35.1,78.2,78.2,78.2h35.6v71.1h-35.6
		c-43.1,0-78.2,35.1-78.2,78.2s35.1,78.2,78.2,78.2s78.2-35.1,78.2-78.2v-35.5h71.1v35.5c0,43.1,35.1,78.2,78.2,78.2
		s78.2-35.1,78.2-78.2C448,326.6,412.9,291.6,369.8,291.6z M334.2,142.2c0-19.6,15.9-35.6,35.5-35.6s35.6,15.9,35.6,35.6
		s-16,35.6-35.6,35.6h-35.5V142.2z M106.7,142.2c0-19.6,15.9-35.6,35.6-35.6s35.6,15.9,35.6,35.6v35.6h-35.6
		C122.6,177.8,106.7,161.8,106.7,142.2z M177.8,369.8c0,19.6-16,35.6-35.6,35.6s-35.6-16-35.6-35.6s15.9-35.5,35.6-35.5h35.6
		L177.8,369.8L177.8,369.8z M220.4,220.4h71.1v71.1h-71.1V220.4z M369.8,405.3c-19.6,0-35.5-16-35.5-35.6v-35.5h35.5
		c19.6,0,35.6,15.9,35.6,35.5C405.3,389.4,389.4,405.3,369.8,405.3z"/>
</g>
</svg>
