<?xml version="1.0" encoding="utf-8"?>
<!-- Generator: Adobe Illustrator 26.2.1, SVG Export Plug-In . SVG Version: 6.00 Build 0)  -->
<svg version="1.1" id="icon" xmlns="http://www.w3.org/2000/svg" xmlns:xlink="http://www.w3.org/1999/xlink" x="0px" y="0px"
	 viewBox="0 0 512 512" style="enable-background:new 0 0 512 512;" xml:space="preserve">
<style type="text/css">
	.st0{fill:#FFFFFF;}
</style>
<g>
	<g>
		<path class="st0" d="M256,469.3c-117.6,0-213.3-95.7-213.3-213.3S138.4,42.7,256,42.7S469.3,138.4,469.3,256
			S373.6,469.3,256,469.3z M256,85.3c-94.1,0-170.7,76.6-170.7,170.7S161.9,426.7,256,426.7S426.7,350.1,426.7,256
			S350.1,85.3,256,85.3z"/>
	</g>
	<g>
		<path class="st0" d="M180.6,352.8c-5.5,0-11-2.2-15.1-6.2c-6.2-6.2-8-15.5-4.5-23.5l45.3-105.6c2.2-5,6.2-9,11.2-11.2L323,161
			c8-3.4,17.3-1.6,23.5,4.5c6.2,6.2,8,15.5,4.5,23.5l-45.2,105.6c-2.1,5-6.2,9.1-11.2,11.2L189,351
			C186.3,352.2,183.4,352.8,180.6,352.8z M242.1,242.1l-20.9,48.7l48.7-20.9l20.9-48.7L242.1,242.1z"/>
	</g>
</g>
</svg>
