<?xml version="1.0" encoding="utf-8"?>
<!-- Generator: Adobe Illustrator 26.2.1, SVG Export Plug-In . SVG Version: 6.00 Build 0)  -->
<svg version="1.1" id="icon" xmlns="http://www.w3.org/2000/svg" xmlns:xlink="http://www.w3.org/1999/xlink" x="0px" y="0px"
	 viewBox="0 0 512 512" style="enable-background:new 0 0 512 512;" xml:space="preserve">
<style type="text/css">
	.st0{fill:#FFFFFF;}
</style>
<g>
	<path class="st0" d="M384,128h-42.7V85.3c0-23.5-19.1-42.7-42.7-42.7H128c-23.5,0-42.7,19.1-42.7,42.7v256
		c0,23.5,19.1,42.7,42.7,42.7h42.7v42.7c0,23.5,19.1,42.7,42.7,42.7H384c23.5,0,42.7-19.1,42.7-42.7v-256
		C426.7,147.1,407.5,128,384,128z M128,85.3h170.7v63.9c0,0,0,0,0,0.1c0,0,0,0,0,0.1v191.9H128V85.3z M384,426.7H213.3V384h85.3
		c23.5,0,42.7-19.1,42.7-42.7V170.7H384V426.7z"/>
</g>
</svg>
