<?xml version="1.0" encoding="utf-8"?>
<!-- Generator: Adobe Illustrator 26.2.1, SVG Export Plug-In . SVG Version: 6.00 Build 0)  -->
<svg version="1.1" id="icon" xmlns="http://www.w3.org/2000/svg" xmlns:xlink="http://www.w3.org/1999/xlink" x="0px" y="0px"
	 viewBox="0 0 512 512" style="enable-background:new 0 0 512 512;" xml:space="preserve">
<style type="text/css">
	.st0{fill:#FFFFFF;}
</style>
<g>
	<g>
		<path class="st0" d="M426.7,192H384v-64c0-23.5-19.1-42.7-42.7-42.7h-256c-23.5,0-42.7,19.1-42.7,42.7v149.3
			c0,23.5,19.1,42.7,42.7,42.7H128v64c0,23.5,19.1,42.7,42.7,42.7h256c23.5,0,42.7-19.1,42.7-42.7V234.7
			C469.3,211.1,450.2,192,426.7,192z M426.7,256h-256v-21.3h256V256z M85.3,277.3V128h256v64H170.7c-23.5,0-42.7,19.1-42.7,42.7
			v42.7H85.3V277.3z M170.7,384v-85.3h256V384H170.7z"/>
		<path class="st0" d="M277.3,320h-64c-11.8,0-21.3,9.5-21.3,21.3s9.6,21.3,21.3,21.3h64c11.8,0,21.3-9.5,21.3-21.3
			C298.7,329.5,289.1,320,277.3,320z"/>
	</g>
</g>
</svg>
