<?xml version="1.0" encoding="utf-8"?>
<!-- Generator: Adobe Illustrator 26.2.1, SVG Export Plug-In . SVG Version: 6.00 Build 0)  -->
<svg version="1.1" id="crown" xmlns="http://www.w3.org/2000/svg" xmlns:xlink="http://www.w3.org/1999/xlink" x="0px" y="0px"
	 viewBox="0 0 512 512" style="enable-background:new 0 0 512 512;" xml:space="preserve">
<style type="text/css">
	.st0{fill:#FFFFFF;}
</style>
<g>
	<path class="st0" d="M405.3,384H106.7c-11.8,0-21.3,9.5-21.3,21.3s9.6,21.3,21.3,21.3h298.7c11.8,0,21.3-9.5,21.3-21.3
		S417.1,384,405.3,384z"/>
	<g>
		<path class="st0" d="M388.7,341.3H123.3c-19.6,0-36.6-13.3-41.4-32.2L43.3,155.4c-2-7.9,0.7-16.2,6.9-21.5s14.9-6.5,22.4-3.2
			l115.6,50.9L237.5,96c3.8-6.6,10.9-10.7,18.5-10.7l0,0c7.6,0,14.7,4.1,18.5,10.7l49.3,85.6l115.6-50.9c7.5-3.3,16.1-2.1,22.4,3.2
			c6.2,5.2,8.9,13.6,6.9,21.5l-38.6,153.7C425.3,328.1,408.3,341.3,388.7,341.3z M95.3,187.3l28,111.4h265.4l28-111.4L341,220.6
			c-20,8.8-43.3,1.2-54.2-17.7L256,149.4l-30.8,53.5c-10.9,18.9-34.2,26.5-54.2,17.7L95.3,187.3z"/>
	</g>
</g>
</svg>
