<?xml version="1.0" encoding="utf-8"?>
<!-- Generator: Adobe Illustrator 26.2.1, SVG Export Plug-In . SVG Version: 6.00 Build 0)  -->
<svg version="1.1" id="cup" xmlns="http://www.w3.org/2000/svg" xmlns:xlink="http://www.w3.org/1999/xlink" x="0px" y="0px"
	 viewBox="0 0 512 512" style="enable-background:new 0 0 512 512;" xml:space="preserve">
<style type="text/css">
	.st0{fill:#FFFFFF;}
</style>
<g>
	<path class="st0" d="M376.4,255.3c72.6-7.3,92.9-71.2,93.2-105.9c0-5.7-2.2-11.2-6.2-15.2s-9.5-6.3-15.1-6.3h-43.4
		c0.3-7.1,0.5-14.2,0.5-21.2c0-11.8-9.5-21.3-21.3-21.3H128c-11.8,0-21.3,9.6-21.3,21.3c0,7,0.2,14.2,0.5,21.3H63.8
		c-5.7,0-11.1,2.3-15.1,6.3s-6.2,9.5-6.2,15.2c0.3,34.8,20.6,98.7,93.2,105.9c20.3,43.5,52.1,76.4,98.9,84.1V384h-64
		c-11.8,0-21.3,9.5-21.3,21.3s9.6,21.3,21.3,21.3h170.7c11.8,0,21.3-9.5,21.3-21.3s-9.5-21.3-21.3-21.3h-64v-44.5
		C324.3,331.9,356.1,298.9,376.4,255.3z M423.4,170.5c-3.9,13-12.4,28-30,36.3c3-11.9,5.4-24,7.3-36.3H423.4z M88.6,170.7h22.8
		c1.8,12.3,4.2,24.5,7.3,36.4C101.1,198.7,92.5,183.7,88.6,170.7z M150.1,128H362c-3.1,51.4-19.7,170.7-105.9,170.7
		S153.2,179.4,150.1,128z"/>
</g>
</svg>
