<?xml version="1.0" encoding="utf-8"?>
<!-- Generator: Adobe Illustrator 26.2.1, SVG Export Plug-In . SVG Version: 6.00 Build 0)  -->
<svg version="1.1" id="Layer_1" xmlns="http://www.w3.org/2000/svg" xmlns:xlink="http://www.w3.org/1999/xlink" x="0px" y="0px"
	 viewBox="0 0 512 512" style="enable-background:new 0 0 512 512;" xml:space="preserve">
<style type="text/css">
	.st0{fill:#FFFFFF;}
</style>
<g id="Grid">
</g>
<g id="document">
	<g>
		<g>
			<path class="st0" d="M414.2,149.3l-94-94.1c-7.9-8-19-12.5-30.2-12.5H128c-23.5,0-42.7,19.1-42.7,42.7v341.3
				c0,23.5,19.1,42.7,42.7,42.7h256c23.5,0,42.7-19.1,42.7-42.7V179.5C426.7,168.3,422.1,157.3,414.2,149.3z M375.2,170.7h-55v-55.1
				L375.2,170.7z M128,426.7V85.3h149.5v85.3c0,23.5,19.1,42.7,42.7,42.7H384l0,0v213.3H128V426.7z"/>
			<path class="st0" d="M320.6,270.2H192c-11.8,0-21.3,9.5-21.3,21.3s9.6,21.3,21.3,21.3h128.6c11.8,0,21.3-9.5,21.3-21.3
				S332.4,270.2,320.6,270.2z"/>
			<path class="st0" d="M320.6,341.3H192c-11.8,0-21.3,9.5-21.3,21.3s9.6,21.3,21.3,21.3h128.6c11.8,0,21.3-9.5,21.3-21.3
				C341.9,350.9,332.4,341.3,320.6,341.3z"/>
			<path class="st0" d="M192,241.8h21.9c11.8,0,21.3-9.6,21.3-21.3s-9.6-21.3-21.3-21.3H192c-11.8,0-21.3,9.6-21.3,21.3
				S180.2,241.8,192,241.8z"/>
			<path class="st0" d="M192,170.7h21.9c11.8,0,21.3-9.6,21.3-21.3s-9.6-21.3-21.3-21.3H192c-11.8,0-21.3,9.6-21.3,21.3
				S180.2,170.7,192,170.7z"/>
		</g>
	</g>
</g>
</svg>
