<?xml version="1.0" encoding="utf-8"?>
<!-- Generator: Adobe Illustrator 26.2.1, SVG Export Plug-In . SVG Version: 6.00 Build 0)  -->
<svg version="1.1" id="Layer_1" xmlns="http://www.w3.org/2000/svg" xmlns:xlink="http://www.w3.org/1999/xlink" x="0px" y="0px"
	 viewBox="0 0 512 512" style="enable-background:new 0 0 512 512;" xml:space="preserve">
<style type="text/css">
	.st0{fill:#FFFFFF;}
</style>
<g id="edit">
	<g>
		<g>
			<g>
				<path class="st0" d="M290,289L290,289c-5.7,0-11.1-2.2-15.1-6.2l-45.2-45.3c-8.3-8.3-8.3-21.8,0-30.2L357.9,79.1
					c20.8-20.8,54.6-20.8,75.4,0c10.1,10.1,15.6,23.5,15.6,37.7c0,14.3-5.5,27.6-15.6,37.7L305.1,282.8
					C301.1,286.8,295.7,289,290,289z M274.9,222.4l15.1,15.1l113.1-113.1c2.7-2.7,3.1-5.9,3.1-7.5s-0.4-4.8-3.1-7.5
					c-4.2-4.1-10.9-4.1-15.1,0L274.9,222.4z"/>
			</g>
			<g>
				<path class="st0" d="M244.8,334.3h-45.2c-11.8,0-21.3-9.5-21.3-21.3v-45.2c0-8.6,5.2-16.4,13.2-19.7s17.1-1.5,23.2,4.6
					l45.2,45.2c6.1,6.1,7.9,15.3,4.6,23.2C261.2,329.1,253.4,334.3,244.8,334.3z"/>
			</g>
		</g>
		<g>
			<path class="st0" d="M405.3,448H106.7C83.1,448,64,428.9,64,405.3V106.7C64,83.1,83.1,64,106.7,64H256c11.8,0,21.3,9.6,21.3,21.3
				s-9.6,21.3-21.3,21.3H106.7v298.7h298.7V256c0-11.8,9.5-21.3,21.3-21.3S448,244.3,448,256v149.3C448,428.9,428.9,448,405.3,448z"
				/>
		</g>
	</g>
</g>
</svg>
