<?xml version="1.0" encoding="utf-8"?>
<!-- Generator: Adobe Illustrator 26.2.1, SVG Export Plug-In . SVG Version: 6.00 Build 0)  -->
<svg version="1.1" id="icon" xmlns="http://www.w3.org/2000/svg" xmlns:xlink="http://www.w3.org/1999/xlink" x="0px" y="0px"
	 viewBox="0 0 512 512" style="enable-background:new 0 0 512 512;" xml:space="preserve">
<style type="text/css">
	.st0{fill:#FFFFFF;}
</style>
<g>
	<path class="st0" d="M426.7,85.3H85.3c-23.5,0-42.7,19.1-42.7,42.7v256c0,23.5,19.1,42.7,42.7,42.7h341.3
		c23.5,0,42.7-19.1,42.7-42.7V128C469.3,104.5,450.2,85.3,426.7,85.3z M85.3,158.2l97.8,97.8l-97.8,97.8V158.2z M256,268.5
		L115.5,128h281L256,268.5z M213.3,286.2l27.6,27.6c4.2,4.2,9.6,6.2,15.1,6.2c5.5,0,10.9-2.1,15.1-6.2l27.6-27.6l97.8,97.8h-281
		L213.3,286.2z M328.8,256l97.8-97.8v195.7L328.8,256z"/>
</g>
</svg>
