<?xml version="1.0" encoding="utf-8"?>
<!-- Generator: Adobe Illustrator 26.2.1, SVG Export Plug-In . SVG Version: 6.00 Build 0)  -->
<svg version="1.1" id="icon" xmlns="http://www.w3.org/2000/svg" xmlns:xlink="http://www.w3.org/1999/xlink" x="0px" y="0px"
	 viewBox="0 0 512 512" style="enable-background:new 0 0 512 512;" xml:space="preserve">
<style type="text/css">
	.st0{fill:#FFFFFF;}
</style>
<g>
	<path class="st0" d="M410.7,354.7c-28.4,32.2-69.2,50.6-112.1,50.6c-59.4,0-110.7-35-134.7-85.3h113.4c11.8,0,21.3-9.5,21.3-21.3
		s-9.5-21.3-21.3-21.3H151c-1-7-1.7-14.1-1.7-21.3s0.7-14.3,1.7-21.3h126.3c11.8,0,21.3-9.6,21.3-21.3s-9.5-21.3-21.3-21.3H163.9
		c24-50.4,75.3-85.3,134.7-85.3c42.9,0,83.7,18.4,112.1,50.6c7.8,8.9,21.3,9.7,30.1,1.9c8.8-7.8,9.7-21.3,1.9-30.1
		C406.3,87.7,353.8,64,298.7,64c-83.4,0-154.4,53.6-180.8,128H85.3c-11.8,0-21.3,9.6-21.3,21.3s9.6,21.3,21.3,21.3h22.6
		c-0.8,7-1.3,14.1-1.3,21.3s0.5,14.3,1.3,21.3H85.3c-11.8,0-21.3,9.5-21.3,21.3s9.6,21.3,21.3,21.3h32.5
		c26.4,74.5,97.4,128,180.8,128c55.1,0,107.6-23.7,144.1-65.1c7.8-8.8,6.9-22.3-1.9-30.1C432,345,418.5,345.8,410.7,354.7z"/>
</g>
</svg>
