<?xml version="1.0" encoding="utf-8"?>
<!-- Generator: Adobe Illustrator 26.2.1, SVG Export Plug-In . SVG Version: 6.00 Build 0)  -->
<svg version="1.1" id="timer" xmlns="http://www.w3.org/2000/svg" xmlns:xlink="http://www.w3.org/1999/xlink" x="0px" y="0px"
	 viewBox="0 0 512 512" style="enable-background:new 0 0 512 512;" xml:space="preserve">
<style type="text/css">
	.st0{fill:#FFFFFF;}
</style>
<g>
	<g>
		<path class="st0" d="M256,384c-114.9,0-213.3-70.4-213.3-128S141.1,128,256,128s213.3,70.4,213.3,128S370.9,384,256,384z
			 M256,170.7c-98.6,0-170.7,59.9-170.7,85.3c0,25.5,72.1,85.3,170.7,85.3s170.7-59.9,170.7-85.3C426.7,230.6,354.6,170.7,256,170.7
			z"/>
	</g>
	<g>
		<path class="st0" d="M256,320c-35.3,0-64-28.7-64-64s28.7-64,64-64s64,28.7,64,64S291.3,320,256,320z M256,234.7
			c-11.8,0-21.3,9.6-21.3,21.3c0,11.8,9.6,21.3,21.3,21.3c11.8,0,21.3-9.6,21.3-21.3C277.3,244.2,267.8,234.7,256,234.7z"/>
	</g>
</g>
</svg>
