<?xml version="1.0" encoding="utf-8"?>
<!-- Generator: Adobe Illustrator 26.2.1, SVG Export Plug-In . SVG Version: 6.00 Build 0)  -->
<svg version="1.1" id="icon" xmlns="http://www.w3.org/2000/svg" xmlns:xlink="http://www.w3.org/1999/xlink" x="0px" y="0px"
	 viewBox="0 0 512 512" style="enable-background:new 0 0 512 512;" xml:space="preserve">
<style type="text/css">
	.st0{fill:#FFFFFF;}
</style>
<g>
	<g>
		<g>
			<path class="st0" d="M405.3,448h-42.7c-11.8,0-21.3-9.5-21.3-21.3s9.5-21.3,21.3-21.3h42.7v-42.7c0-11.8,9.5-21.3,21.3-21.3
				s21.3,9.5,21.3,21.3v42.7C448,428.9,428.9,448,405.3,448z"/>
		</g>
		<g>
			<path class="st0" d="M426.7,170.7c-11.8,0-21.3-9.6-21.3-21.3v-42.7h-42.7c-11.8,0-21.3-9.6-21.3-21.3S350.9,64,362.7,64h42.7
				c23.5,0,42.7,19.1,42.7,42.7v42.7C448,161.1,438.5,170.7,426.7,170.7z"/>
		</g>
		<g>
			<path class="st0" d="M85.3,170.7c-11.8,0-21.3-9.6-21.3-21.3v-42.7C64,83.1,83.1,64,106.7,64h42.7c11.8,0,21.3,9.6,21.3,21.3
				s-9.6,21.3-21.3,21.3h-42.7v42.7C106.7,161.1,97.1,170.7,85.3,170.7z"/>
		</g>
		<g>
			<path class="st0" d="M149.3,448h-42.7C83.1,448,64,428.9,64,405.3v-42.7c0-11.8,9.6-21.3,21.3-21.3s21.3,9.5,21.3,21.3v42.7h42.7
				c11.8,0,21.3,9.5,21.3,21.3C170.7,438.5,161.1,448,149.3,448z"/>
		</g>
	</g>
	<g>
		<g>
			<path class="st0" d="M170.7,196.6c-11.8,0-21.3-9.6-21.3-21.3V154c0-11.8,9.6-21.3,21.3-21.3S192,142.3,192,154v21.3
				C192,187.1,182.4,196.6,170.7,196.6z"/>
		</g>
		<g>
			<path class="st0" d="M341.3,196.6c-11.8,0-21.3-9.6-21.3-21.3V154c0-11.8,9.5-21.3,21.3-21.3s21.3,9.6,21.3,21.3v21.3
				C362.7,187.1,353.1,196.6,341.3,196.6z"/>
		</g>
		<g>
			<path class="st0" d="M256,282h-42.7c-11.8,0-21.3-9.6-21.3-21.3c0-11.8,9.6-21.3,21.3-21.3h21.3v-85.3c0-11.8,9.6-21.3,21.3-21.3
				s21.3,9.6,21.3,21.3v106.7C277.3,272.4,267.8,282,256,282z"/>
		</g>
		<g>
			<path class="st0" d="M256,379.5c-26.4,0-52.8-7.7-75.8-23c-9.8-6.5-12.4-19.8-5.9-29.6c6.5-9.8,19.8-12.5,29.6-5.9
				c31.7,21.1,72.6,21.1,104.3,0c9.8-6.5,23-3.9,29.6,5.9c6.5,9.8,3.9,23-5.9,29.6C308.8,371.8,282.4,379.5,256,379.5z"/>
		</g>
	</g>
</g>
</svg>
