<?xml version="1.0" encoding="utf-8"?>
<!-- Generator: Adobe Illustrator 26.2.1, SVG Export Plug-In . SVG Version: 6.00 Build 0)  -->
<svg version="1.1" id="icon" xmlns="http://www.w3.org/2000/svg" xmlns:xlink="http://www.w3.org/1999/xlink" x="0px" y="0px"
	 viewBox="0 0 512 512" style="enable-background:new 0 0 512 512;" xml:space="preserve">
<style type="text/css">
	.st0{fill:#FFFFFF;}
</style>
<g>
	<g>
		<g>
			<g>
				<path class="st0" d="M256,416c-11.8,0-21.3-9.5-21.3-21.3s9.6-21.3,21.3-21.3c39,0,75.4-19.4,97.3-51.8
					c6.6-9.8,19.8-12.3,29.6-5.8c9.8,6.6,12.3,19.9,5.8,29.6C358.8,389.6,309.2,416,256,416z"/>
			</g>
		</g>
		<g>
			<path class="st0" d="M154.1,371.5c-10.6,0-19.7-7.8-21.1-18.6c-1.5-11.6,6.7-22.3,18.3-23.9c2.9-0.4,63-10.1,84.3-79.3
				c3.5-11.3,15.4-17.5,26.7-14.1c11.3,3.5,17.6,15.4,14.1,26.7c-29.6,96.3-115.8,108.6-119.5,109.1
				C156,371.5,155.1,371.5,154.1,371.5z"/>
		</g>
		<g>
			<path class="st0" d="M293,346.3c-7.6,0-15-4.1-18.8-11.2c-5.6-10.4-1.7-23.3,8.7-28.9c18.5-10,30-29.2,30-50.2
				c0-31.4-25.5-56.9-56.9-56.9s-56.9,25.5-56.9,56.9c0,11.8-9.6,21.3-21.3,21.3s-21.3-9.6-21.3-21.3c0-54.9,44.7-99.6,99.6-99.6
				s99.6,44.7,99.6,99.6c0,36.7-20.1,70.4-52.5,87.8C299.9,345.5,296.4,346.3,293,346.3z"/>
		</g>
		<g>
			<path class="st0" d="M117.3,277.3c-11.8,0-21.3-9.6-21.3-21.3c0-42.5,16.5-82.5,46.4-112.6c8.3-8.4,21.8-8.4,30.2-0.1
				c8.4,8.3,8.4,21.8,0.1,30.2c-21.9,22.1-34,51.4-34,82.6C138.7,267.8,129.1,277.3,117.3,277.3z"/>
		</g>
		<g>
			<path class="st0" d="M394.7,277.3c-11.8,0-21.3-9.6-21.3-21.3c0-64.7-52.6-117.3-117.3-117.3c-11.8,0-21.3-9.6-21.3-21.3
				S244.2,96,256,96c88.2,0,160,71.8,160,160C416,267.8,406.5,277.3,394.7,277.3z"/>
		</g>
	</g>
	<g>
		<g>
			<path class="st0" d="M405.3,448h-42.7c-11.8,0-21.3-9.5-21.3-21.3s9.5-21.3,21.3-21.3h42.7v-42.7c0-11.8,9.5-21.3,21.3-21.3
				s21.3,9.5,21.3,21.3v42.7C448,428.9,428.9,448,405.3,448z"/>
		</g>
		<g>
			<path class="st0" d="M426.7,170.7c-11.8,0-21.3-9.6-21.3-21.3v-42.7h-42.7c-11.8,0-21.3-9.6-21.3-21.3S350.9,64,362.7,64h42.7
				c23.5,0,42.7,19.1,42.7,42.7v42.7C448,161.1,438.5,170.7,426.7,170.7z"/>
		</g>
		<g>
			<path class="st0" d="M85.3,170.7c-11.8,0-21.3-9.6-21.3-21.3v-42.7C64,83.1,83.1,64,106.7,64h42.7c11.8,0,21.3,9.6,21.3,21.3
				s-9.6,21.3-21.3,21.3h-42.7v42.7C106.7,161.1,97.1,170.7,85.3,170.7z"/>
		</g>
		<g>
			<path class="st0" d="M149.3,448h-42.7C83.1,448,64,428.9,64,405.3v-42.7c0-11.8,9.6-21.3,21.3-21.3s21.3,9.5,21.3,21.3v42.7h42.7
				c11.8,0,21.3,9.5,21.3,21.3C170.7,438.5,161.1,448,149.3,448z"/>
		</g>
	</g>
</g>
</svg>
