<?xml version="1.0" encoding="utf-8"?>
<!-- Generator: Adobe Illustrator 26.2.1, SVG Export Plug-In . SVG Version: 6.00 Build 0)  -->
<svg version="1.1" id="icon" xmlns="http://www.w3.org/2000/svg" xmlns:xlink="http://www.w3.org/1999/xlink" x="0px" y="0px"
	 viewBox="0 0 512 512" style="enable-background:new 0 0 512 512;" xml:space="preserve">
<style type="text/css">
	.st0{fill:#FFFFFF;}
</style>
<g>
	<path class="st0" d="M437.9,88.6c-6.3-3.9-14.1-4.3-20.7-1c-0.4,0.2-39.6,19.1-97.2,19.1c-25.5,0-37.3-7.8-52.2-17.8
		C251.2,77.8,230.5,64,192,64c-36.8,0-66.7,6.5-87.2,12.8C101.5,69.3,94,64,85.3,64C73.6,64,64,73.6,64,85.3v21.3v192v128
		c0,11.8,9.6,21.3,21.3,21.3s21.3-9.5,21.3-21.3V313c15.7-5.7,46-14.4,85.3-14.4c25.5,0,37.3,7.8,52.2,17.8
		c16.6,11.1,37.4,24.9,75.8,24.9c68.2,0,114.3-22.6,116.2-23.6c7.2-3.6,11.8-11,11.8-19.1v-192C448,99.3,444.2,92.5,437.9,88.6z
		 M405.3,284.3c-15.8,5.7-46.3,14.3-85.3,14.3c-25.5,0-37.3-7.8-52.2-17.8c-16.6-11-37.3-24.8-75.8-24.8c-35.5,0-64.9,6.1-85.3,12.1
		V121c15.8-5.7,46.3-14.3,85.3-14.3c25.5,0,37.3,7.8,52.2,17.8c16.6,11.1,37.4,24.9,75.8,24.9c35.5,0,64.9-6.1,85.3-12.1V284.3z"/>
</g>
</svg>
