<?xml version="1.0" encoding="utf-8"?>
<!-- Generator: Adobe Illustrator 26.2.1, SVG Export Plug-In . SVG Version: 6.00 Build 0)  -->
<svg version="1.1" id="folder" xmlns="http://www.w3.org/2000/svg" xmlns:xlink="http://www.w3.org/1999/xlink" x="0px" y="0px"
	 viewBox="0 0 512 512" style="enable-background:new 0 0 512 512;" xml:space="preserve">
<style type="text/css">
	.st0{fill:#FFFFFF;}
</style>
<g>
	<path class="st0" d="M465.1,273.1c5.8-13.2,4.5-28.4-3.4-40.5s-21.2-19.3-35.7-19.3h-20.7V192c0-23.5-19.1-42.7-42.7-42.7H256V128
		c0-23.5-19.1-42.7-42.7-42.7h-128c-23.5,0-42.7,19.1-42.7,42.7v277.3c0,0.1,0.1,0.2,0.1,0.4c0,2.5,0.6,4.8,1.4,7.2
		c0.2,0.6,0.5,1.1,0.8,1.7c0.3,0.7,0.5,1.4,0.9,2c0.7,1.2,1.7,2.2,2.6,3.3c0.2,0.2,0.4,0.5,0.6,0.8c1.7,1.7,3.7,3,5.9,4
		c0.5,0.3,1.1,0.4,1.6,0.7c2.3,0.9,4.8,1.5,7.4,1.5h320c2.6,0,5.1-0.6,7.4-1.5c0.7-0.3,1.3-0.6,2-0.9c1.6-0.8,3.1-1.8,4.5-3
		c0.5-0.5,1.1-0.9,1.6-1.4c1.6-1.7,3.1-3.7,4-5.9l0.1-0.2c0,0,0-0.1,0.1-0.1L465.1,273.1z M213.3,128v21.3
		c0,23.5,19.1,42.7,42.7,42.7h106.7v21.3H162.5c-16.3,0-30.9,9-38.2,23.6l-39,78V128H213.3z M98.5,384l64-128H426l-56,128H98.5z"/>
</g>
</svg>
