<?xml version="1.0" encoding="utf-8"?>
<!-- Generator: Adobe Illustrator 26.2.1, SVG Export Plug-In . SVG Version: 6.00 Build 0)  -->
<svg version="1.1" id="icon" xmlns="http://www.w3.org/2000/svg" xmlns:xlink="http://www.w3.org/1999/xlink" x="0px" y="0px"
	 viewBox="0 0 512 512" style="enable-background:new 0 0 512 512;" xml:space="preserve">
<style type="text/css">
	.st0{fill:#FFFFFF;}
</style>
<g>
	<path class="st0" d="M64.2,197v229.6c0,11.8,9.5,21.3,21.3,21.3s21.3-9.5,21.3-21.3V197h268.3l-54.2,54.3c-8.3,8.4-8.3,21.9,0,30.2
		c4.2,4.1,9.6,6.2,15.1,6.2s10.9-2,15.1-6.2l90.5-90.6c8.3-8.4,8.3-21.9,0-30.2l-90.5-90.6c-8.4-8.3-21.9-8.3-30.2,0
		c-8.3,8.4-8.3,21.9,0,30.2l54.1,54.1H106.8C83.2,154.4,64.1,173.5,64.2,197z"/>
</g>
</svg>
