<?xml version="1.0" encoding="utf-8"?>
<!-- Generator: Adobe Illustrator 26.2.1, SVG Export Plug-In . SVG Version: 6.00 Build 0)  -->
<svg version="1.1" id="document" xmlns="http://www.w3.org/2000/svg" xmlns:xlink="http://www.w3.org/1999/xlink" x="0px" y="0px"
	 viewBox="0 0 512 512" style="enable-background:new 0 0 512 512;" xml:space="preserve">
<style type="text/css">
	.st0{fill:#FFFFFF;}
</style>
<g>
	<path class="st0" d="M413.2,128h-25.7c5.9-10.8,7.9-22.2,5.1-32.6c-3.3-12.3-12.7-22.2-26.6-27.9c-22.3-9.2-51-6.1-74.9,8
		c-13.8,8.1-25.5,18.2-35.1,27.9c-9.6-9.7-21.3-19.8-35.1-27.9c-23.9-14.1-52.6-17.2-74.9-8c-13.9,5.7-23.3,15.6-26.6,27.9
		c-2.7,10.4-0.8,21.7,5.1,32.6H98.8C79.6,128,64,143.6,64,162.8v58.4c0,14.4,8.8,26.8,21.4,32.1c0,0.1,0,0.2,0,0.3v154.1
		c0,22.2,18.1,40.3,40.3,40.3h260.8c22.2,0,40.3-18.1,40.3-40.3V253.6c0-0.1,0-0.2,0-0.3c12.5-5.3,21.4-17.7,21.4-32.1v-58.4
		C448,143.6,432.4,128,413.2,128z M405.3,213.3h-18.9h-68v-42.7h86.9V213.3z M233.1,170.7h13h19.8h9.9v42.7h-42.7L233.1,170.7
		L233.1,170.7z M312.7,112.2c9.4-5.5,18.4-7.3,25.4-7.3c5.5,0,9.9,1.1,12.4,2.2c-2.8,5.6-14.3,17.2-34.9,19.9
		c-2.5,0.3-11.6,0.5-23.6,0.6C298.2,122.2,305.1,116.7,312.7,112.2z M199.3,112.2c7.6,4.5,14.6,9.9,20.7,15.5
		c-12-0.2-21-0.4-23.5-0.6c-20.7-2.7-32.1-14.2-35-19.9C167.1,104.6,182.5,102.4,199.3,112.2z M106.7,170.7h83.8v42.7h-64.8h-18.9
		L106.7,170.7L106.7,170.7z M128,405.3V256h62.4v149.3H128z M233.1,405.3V256h42.7v149.3H233.1z M384,405.3h-65.6V256H384V405.3z"/>
</g>
</svg>
