<?xml version="1.0" encoding="utf-8"?>
<!-- Generator: Adobe Illustrator 26.2.1, SVG Export Plug-In . SVG Version: 6.00 Build 0)  -->
<svg version="1.1" id="Heart" xmlns="http://www.w3.org/2000/svg" xmlns:xlink="http://www.w3.org/1999/xlink" x="0px" y="0px"
	 viewBox="0 0 512 512" style="enable-background:new 0 0 512 512;" xml:space="preserve">
<style type="text/css">
	.st0{fill:#FFFFFF;}
</style>
<g>
	<path class="st0" d="M368,181.3c0-29.4-23.9-53.3-53.3-53.3s-53.3,23.9-53.3,53.3c0,21.8,13.2,40.6,32,48.8V256
		c0,23.5-19.1,42.7-42.7,42.7h-32V144.8c18.8-8.3,32-27,32-48.8c0-29.4-23.9-53.3-53.3-53.3S144,66.6,144,96
		c0,21.8,13.2,40.6,32,48.8v222.4c-18.8,8.3-32,27-32,48.8c0,29.4,23.9,53.3,53.3,53.3s53.3-23.9,53.3-53.3
		c0-21.8-13.2-40.6-32-48.8v-25.9h32c47.1,0,85.3-38.3,85.3-85.3v-25.9C354.8,221.9,368,203.1,368,181.3z M197.3,85.3
		c5.9,0,10.7,4.8,10.7,10.7s-4.8,10.7-10.7,10.7s-10.7-4.8-10.7-10.7S191.4,85.3,197.3,85.3z M197.3,426.7
		c-5.9,0-10.7-4.8-10.7-10.7s4.8-10.7,10.7-10.7S208,410.1,208,416S203.2,426.7,197.3,426.7z M314.7,170.7c5.9,0,10.7,4.8,10.7,10.7
		s-4.8,10.7-10.7,10.7s-10.7-4.8-10.7-10.7C304,175.4,308.8,170.7,314.7,170.7z"/>
</g>
</svg>
