<?xml version="1.0" encoding="utf-8"?>
<!-- Generator: Adobe Illustrator 26.2.1, SVG Export Plug-In . SVG Version: 6.00 Build 0)  -->
<svg version="1.1" id="check" xmlns="http://www.w3.org/2000/svg" xmlns:xlink="http://www.w3.org/1999/xlink" x="0px" y="0px"
	 viewBox="0 0 512 512" style="enable-background:new 0 0 512 512;" xml:space="preserve">
<style type="text/css">
	.st0{fill:#FFFFFF;}
</style>
<g>
	<path class="st0" d="M442.1,359.9c17.3-30.8,27.2-66.2,27.2-103.9s-9.9-73.1-27.2-103.9c-0.4-1-1.1-1.7-1.6-2.6
		C403.6,85.7,334.8,42.7,256,42.7S108.4,85.8,71.4,149.5c-0.5,0.9-1.2,1.6-1.6,2.6C52.6,182.8,42.7,218.3,42.7,256
		s9.9,73.1,27.2,103.9c0.4,1,1.1,1.7,1.6,2.6c36.9,63.7,105.7,106.7,184.5,106.7c78.7,0,147.5-43,184.5-106.7
		C441,361.7,441.7,360.9,442.1,359.9z M256,426.7c-14,0-31.4-19.4-44.6-53.3h89.1C287.4,407.3,270,426.7,256,426.7z M199.2,330.7
		c-3.3-16.1-5.6-33.9-6.6-53.3h126.8c-1,19.4-3.3,37.2-6.6,53.3H199.2z M102.8,181.3h52.9c-3,16.8-5,34.6-5.9,53.3h-63
		C89.2,215.7,94.7,197.8,102.8,181.3z M256,85.3c14,0,31.4,19.4,44.6,53.3h-89.1C224.6,104.7,242,85.3,256,85.3z M312.8,181.3
		c3.3,16.1,5.6,33.9,6.6,53.3H192.6c1-19.4,3.3-37.2,6.6-53.3H312.8z M425.2,234.7h-63c-0.8-18.7-2.9-36.5-5.9-53.3h52.9
		C417.3,197.8,422.8,215.7,425.2,234.7z M86.8,277.3h63c0.8,18.7,2.9,36.5,5.9,53.3h-52.9C94.7,314.2,89.2,296.3,86.8,277.3z
		 M362.2,277.3h63c-2.4,18.9-7.9,36.8-16,53.3h-52.9C359.3,313.9,361.3,296.1,362.2,277.3z M379.6,138.7H346
		c-4.1-12.8-8.7-24.7-14.1-35.3C349.9,112.3,366,124.3,379.6,138.7z M180,103.4c-5.3,10.6-10,22.5-14.1,35.3h-33.6
		C146,124.3,162.1,112.3,180,103.4z M132.4,373.3H166c4.1,12.8,8.7,24.7,14.1,35.3C162.1,399.7,146,387.7,132.4,373.3z M332,408.6
		c5.3-10.6,10-22.5,14.1-35.3h33.6C366,387.7,349.9,399.7,332,408.6z"/>
</g>
</svg>
