<?xml version="1.0" encoding="utf-8"?>
<!-- Generator: Adobe Illustrator 26.2.1, SVG Export Plug-In . SVG Version: 6.00 Build 0)  -->
<svg version="1.1" id="crown" xmlns="http://www.w3.org/2000/svg" xmlns:xlink="http://www.w3.org/1999/xlink" x="0px" y="0px"
	 viewBox="0 0 512 512" style="enable-background:new 0 0 512 512;" xml:space="preserve">
<style type="text/css">
	.st0{fill:#FFFFFF;}
</style>
<g>
	<g>
		<path class="st0" d="M426.7,85.3H85.3c-23.5,0-42.7,19.1-42.7,42.7v256c0,23.5,19.1,42.7,42.7,42.7h341.3
			c23.5,0,42.7-19.1,42.7-42.7V128C469.3,104.5,450.2,85.3,426.7,85.3z M85.3,384V128h341.3v256H85.3z"/>
		<path class="st0" d="M384,149.3h-64c-11.8,0-21.3,9.6-21.3,21.3S308.2,192,320,192h12.6l-97.4,98.4l-28.1-28.1
			c-8.3-8.3-21.8-8.3-30.2,0l-64,64c-8.3,8.3-8.3,21.8,0,30.2c4.2,4.2,9.6,6.2,15.1,6.2c5.5,0,10.9-2.1,15.1-6.2l48.9-48.9
			l28.2,28.2c4,4,9.4,6.2,15.1,6.2c0,0,0,0,0.1,0c5.7,0,11.1-2.3,15.1-6.3l112.2-113.3v12.3c0,11.8,9.5,21.3,21.3,21.3
			s21.3-9.6,21.3-21.3v-64C405.3,158.9,395.8,149.3,384,149.3z"/>
	</g>
</g>
</svg>
