<?xml version="1.0" encoding="utf-8"?>
<!-- Generator: Adobe Illustrator 26.2.1, SVG Export Plug-In . SVG Version: 6.00 Build 0)  -->
<svg version="1.1" id="Line_1" xmlns="http://www.w3.org/2000/svg" xmlns:xlink="http://www.w3.org/1999/xlink" x="0px" y="0px"
	 viewBox="0 0 512 512" style="enable-background:new 0 0 512 512;" xml:space="preserve">
<style type="text/css">
	.st0{fill:#FFFFFF;}
</style>
<g>
	<g>
		<path class="st0" d="M448,128H64c-11.8,0-21.3-9.6-21.3-21.3S52.2,85.3,64,85.3h384c11.8,0,21.3,9.6,21.3,21.3S459.8,128,448,128z
			"/>
	</g>
	<g>
		<path class="st0" d="M448,426.7H64c-11.8,0-21.3-9.5-21.3-21.3s9.6-21.3,21.3-21.3h384c11.8,0,21.3,9.5,21.3,21.3
			C469.3,417.1,459.8,426.7,448,426.7z"/>
	</g>
	<g>
		<path class="st0" d="M448,277.3H64c-11.8,0-21.3-9.6-21.3-21.3s9.6-21.3,21.3-21.3h384c11.8,0,21.3,9.6,21.3,21.3
			S459.8,277.3,448,277.3z"/>
	</g>
</g>
</svg>
