<?xml version="1.0" encoding="utf-8"?>
<!-- Generator: Adobe Illustrator 26.2.1, SVG Export Plug-In . SVG Version: 6.00 Build 0)  -->
<svg version="1.1" id="Heart" xmlns="http://www.w3.org/2000/svg" xmlns:xlink="http://www.w3.org/1999/xlink" x="0px" y="0px"
	 viewBox="0 0 512 512" style="enable-background:new 0 0 512 512;" xml:space="preserve">
<style type="text/css">
	.st0{fill:#FFFFFF;}
</style>
<g>
	<g>
		<path class="st0" d="M85.8,213.3c-0.4,0-0.8,0-1.2,0c-11.8-0.7-20.8-10.7-20.1-22.5C68.7,115,115.7,64,181.3,64
			c27.7,0,53.9,9.6,74.7,26.8C276.7,73.6,302.9,64,330.7,64c65.6,0,112.6,51,116.9,126.8c0.7,11.8-8.3,21.8-20.1,22.5
			c-11.6,0.5-21.8-8.3-22.5-20.1c-3-52.6-32.1-86.5-74.3-86.5c-22.8,0-43.9,10.1-58,27.8c-8.1,10.2-25.3,10.2-33.4,0
			c-14.1-17.7-35.2-27.8-58-27.8c-42.1,0-71.3,34-74.3,86.5C106.4,204.6,97,213.3,85.8,213.3z"/>
	</g>
	<g>
		<path class="st0" d="M256,448c-39.3,0-107.6-53.2-149.2-116.2c-6.5-9.8-3.8-23.1,6.1-29.6c9.9-6.4,23.1-3.8,29.6,6.1
			c39.1,59.3,96.6,97.1,113.6,97.1s74.5-37.8,113.6-97.1c6.5-9.8,19.7-12.5,29.6-6.1c9.8,6.5,12.5,19.7,6.1,29.6
			C363.6,394.8,295.3,448,256,448z"/>
	</g>
	<g>
		<path class="st0" d="M256,341.3c-0.5,0-1,0-1.5-0.1c-8.6-0.6-16-6.3-18.7-14.5l-28.9-86.6l-18.5,27.7c-4,5.9-10.6,9.5-17.8,9.5
			H85.3c-11.8,0-21.3-9.6-21.3-21.3s9.6-21.3,21.3-21.3h73.9l36.3-54.5c4.5-6.8,12.5-10.4,20.6-9.3c8.1,1.1,14.8,6.7,17.4,14.4
			l26.4,79.1l19.6-39.3c5.3-10.5,18.1-14.8,28.6-9.5l38.2,19.1h80.3c11.8,0,21.3,9.6,21.3,21.3c0,11.7-9.5,21.3-21.3,21.3h-85.3
			c-3.3,0-6.6-0.8-9.5-2.2l-23.6-11.8l-33.1,66.2C271.4,336.8,264,341.3,256,341.3z"/>
	</g>
</g>
</svg>
