<?xml version="1.0" encoding="utf-8"?>
<!-- Generator: Adobe Illustrator 26.2.1, SVG Export Plug-In . SVG Version: 6.00 Build 0)  -->
<svg version="1.1" id="Line_1" xmlns="http://www.w3.org/2000/svg" xmlns:xlink="http://www.w3.org/1999/xlink" x="0px" y="0px"
	 viewBox="0 0 512 512" style="enable-background:new 0 0 512 512;" xml:space="preserve">
<style type="text/css">
	.st0{fill:#FFFFFF;}
</style>
<path class="st0" d="M442.6,263.2l-43.4-48.8c-0.1-0.1-0.1-0.2-0.2-0.2L272,71.3c-8.1-9.1-23.8-9.1-31.9,0L192,125.2v-18.5
	c0-11.8-9.6-21.3-21.3-21.3s-21.3,9.6-21.3,21.3v66.5L113,214.1c-0.1,0.1-0.1,0.1-0.2,0.2l-43.4,48.9c-7.8,8.8-7,22.3,1.8,30.1
	c8.8,7.9,22.3,7,30.1-1.8l5.4-6.1v119.9c0,23.5,19.1,42.7,42.7,42.7h64h85.3h64c23.5,0,42.7-19.1,42.7-42.7V285.4l5.4,6.1
	c4.2,4.8,10.1,7.2,15.9,7.2c5,0,10.1-1.8,14.2-5.4C449.6,285.5,450.4,272,442.6,263.2z M234.7,405.3V320h42.7v85.3H234.7z
	 M362.7,405.3H320V320c0-23.5-19.1-42.7-42.7-42.7h-42.7c-23.5,0-42.7,19.1-42.7,42.7v85.3h-42.7V237.4l36.3-40.8
	c0.1-0.1,0.2-0.2,0.3-0.3l70.1-78.8l106.7,120v167.8H362.7z"/>
</svg>
