<?xml version="1.0" encoding="utf-8"?>
<!-- Generator: Adobe Illustrator 26.2.1, SVG Export Plug-In . SVG Version: 6.00 Build 0)  -->
<svg version="1.1" id="Heart" xmlns="http://www.w3.org/2000/svg" xmlns:xlink="http://www.w3.org/1999/xlink" x="0px" y="0px"
	 viewBox="0 0 512 512" style="enable-background:new 0 0 512 512;" xml:space="preserve">
<style type="text/css">
	.st0{fill:#FFFFFF;}
</style>
<g>
	<g>
		<path class="st0" d="M448,192h-46.5L387,119.6c-4-19.9-21.6-34.3-41.8-34.3H166.8c-20.3,0-37.9,14.4-41.8,34.3L110.5,192H64
			c-11.8,0-21.3,9.6-21.3,21.3s9.6,21.3,21.3,21.3h64h256h64c11.8,0,21.3-9.6,21.3-21.3S459.8,192,448,192z M154,192l12.8-64h178.4
			l12.8,64H154z"/>
		<path class="st0" d="M362.7,256c-37.1,0-68.4,23.9-80.1,57c-17.4-4-35.6-4-53.1,0c-11.7-33.1-43.1-57-80.1-57
			c-47.1,0-85.3,38.3-85.3,85.3s38.3,85.3,85.3,85.3c41.8,0,76.5-30.2,83.8-69.9c14.9-4.9,30.9-4.9,45.8,0
			c7.3,39.7,42,69.9,83.8,69.9c47.1,0,85.3-38.3,85.3-85.3S409.7,256,362.7,256z M149.3,384c-23.5,0-42.7-19.1-42.7-42.7
			c0-23.5,19.1-42.7,42.7-42.7s42.7,19.1,42.7,42.7S172.9,384,149.3,384z M362.7,384c-23.5,0-42.7-19.1-42.7-42.7
			c0-23.5,19.1-42.7,42.7-42.7c23.5,0,42.7,19.1,42.7,42.7C405.3,364.9,386.2,384,362.7,384z"/>
	</g>
</g>
</svg>
