<?xml version="1.0" encoding="utf-8"?>
<!-- Generator: Adobe Illustrator 26.2.1, SVG Export Plug-In . SVG Version: 6.00 Build 0)  -->
<svg version="1.1" id="laptop" xmlns="http://www.w3.org/2000/svg" xmlns:xlink="http://www.w3.org/1999/xlink" x="0px" y="0px"
	 viewBox="0 0 512 512" style="enable-background:new 0 0 512 512;" xml:space="preserve">
<style type="text/css">
	.st0{fill:#FFFFFF;}
</style>
<g>
	<g>
		<path class="st0" d="M384,362.7H128c-23.5,0-42.7-19.1-42.7-42.7V128c0-23.5,19.1-42.7,42.7-42.7h256c23.5,0,42.7,19.1,42.7,42.7
			v192C426.7,343.5,407.5,362.7,384,362.7z M128,128v192h256V128H128z"/>
	</g>
	<g>
		<path class="st0" d="M277.3,192h-42.7c-11.8,0-21.3-9.6-21.3-21.3s9.6-21.3,21.3-21.3h42.7c11.8,0,21.3,9.6,21.3,21.3
			S289.1,192,277.3,192z"/>
	</g>
	<g>
		<path class="st0" d="M448,426.7H64c-11.8,0-21.3-9.5-21.3-21.3s9.6-21.3,21.3-21.3h384c11.8,0,21.3,9.5,21.3,21.3
			C469.3,417.1,459.8,426.7,448,426.7z"/>
	</g>
</g>
</svg>
