<?xml version="1.0" encoding="utf-8"?>
<!-- Generator: Adobe Illustrator 26.2.1, SVG Export Plug-In . SVG Version: 6.00 Build 0)  -->
<svg version="1.1" id="Layer_1" xmlns="http://www.w3.org/2000/svg" xmlns:xlink="http://www.w3.org/1999/xlink" x="0px" y="0px"
	 viewBox="0 0 512 512" style="enable-background:new 0 0 512 512;" xml:space="preserve">
<style type="text/css">
	.st0{fill:#FFFFFF;}
</style>
<g>
	<path class="st0" d="M448,256.1c0-7.6-4-14.7-10.5-18.5l-30.8-18l30.6-17.6c6.6-3.8,10.7-10.9,10.7-18.5s-4.1-14.7-10.7-18.5
		L266.6,66.8c-6.6-3.8-14.7-3.8-21.3,0L74.7,165c-6.6,3.8-10.7,10.9-10.7,18.5s4.1,14.7,10.7,18.5l30.6,17.6l-30.8,18
		C68,241.4,64,248.5,64,256.1s4.1,14.6,10.7,18.4l30.6,17.6l-30.8,18C68,314,64,321,64,328.6s4.1,14.6,10.7,18.4l170.7,98.1
		c3.3,1.9,7,2.8,10.6,2.8c3.7,0,7.3-0.9,10.6-2.8L437.3,347c6.6-3.8,10.7-10.8,10.7-18.4s-4-14.6-10.5-18.5L406.7,292l30.6-17.6
		C443.9,270.7,448,263.7,448,256.1z M256,109.9l127.9,73.5L256,257l-127.9-73.5L256,109.9z M245.4,300.1c3.3,1.9,7,2.8,10.6,2.8
		c3.7,0,7.3-0.9,10.6-2.8l97.5-56.1l20.1,11.8L256,329.5l-128.2-73.7l20.1-11.8L245.4,300.1z M384.2,328.4L256,402.1l-128.2-73.7
		l20.1-11.8l97.5,56c3.3,1.9,7,2.8,10.6,2.8c3.7,0,7.3-0.9,10.6-2.8l97.5-56L384.2,328.4z"/>
</g>
</svg>
