<?xml version="1.0" encoding="utf-8"?>
<!-- Generator: Adobe Illustrator 26.2.1, SVG Export Plug-In . SVG Version: 6.00 Build 0)  -->
<svg version="1.1" id="like" xmlns="http://www.w3.org/2000/svg" xmlns:xlink="http://www.w3.org/1999/xlink" x="0px" y="0px"
	 viewBox="0 0 512 512" style="enable-background:new 0 0 512 512;" xml:space="preserve">
<style type="text/css">
	.st0{fill:#FFFFFF;}
</style>
<g>
	<g>
		<path class="st0" d="M129.2,426.3h-23.8c-22.7,0-41.1-18.4-41.1-41.1V254.8c0-22.7,18.4-41.1,41.1-41.1h23.8
			c22.7,0,41.1,18.4,41.1,41.1v130.4C170.3,407.9,151.9,426.3,129.2,426.3z M106.3,384.3h22V255.7h-22V384.3z"/>
	</g>
	<g>
		<path class="st0" d="M368.2,447.7c-2.5,0-5-0.1-7.6-0.5l-112.4-13.5h-0.1c-31.8-4-55.8-31.3-55.8-63.5v-75.8
			c0-32.1,6.2-64.3,18.5-95.8c5.8-14.7,10.4-32.2,13.7-52c2-12.4,5.1-31,14.5-47.6c12.8-22.6,33.3-34.5,59.5-34.5
			c17.6,0,32.7,8.8,42.6,24.8c13.4,21.6,14.2,51.3,13.5,67.1c-0.6,12.7-2.4,25.4-5.3,37.2h36.1c34.2,0,62.1,27.9,62.1,62.3
			c0,0.8-0.1,1.7-0.2,2.5l-16.2,133.1C427.3,423.8,399.8,447.7,368.2,447.7z M253.3,392.1l112.3,13.5c11.8,1.4,22.6-7.2,24.1-19.2
			l16-131.6c-0.5-10.7-9.3-19.2-20.1-19.2h-65.7c-7.3,0-14-3.8-17.9-9.9c-3.8-6.2-4.2-13.9-0.9-20.4c13.8-27.7,16-75.1,4.4-93.8
			c-3.1-4.9-5.4-4.9-6.9-4.9c-11,0-17.7,3.8-23,13.2c-5.7,10.1-8,23.8-9.6,33.8v0.1c-3.8,22.7-9.3,43-16.1,60.4
			c-10.4,26.6-15.6,53.7-15.6,80.5v75.8C234.3,381.3,242.5,390.7,253.3,392.1z M426.7,255.8L426.7,255.8L426.7,255.8z"/>
	</g>
</g>
</svg>
