<?xml version="1.0" encoding="utf-8"?>
<!-- Generator: Adobe Illustrator 26.2.1, SVG Export Plug-In . SVG Version: 6.00 Build 0)  -->
<svg version="1.1" id="icon" xmlns="http://www.w3.org/2000/svg" xmlns:xlink="http://www.w3.org/1999/xlink" x="0px" y="0px"
	 viewBox="0 0 512 512" style="enable-background:new 0 0 512 512;" xml:space="preserve">
<style type="text/css">
	.st0{fill:#FFFFFF;}
</style>
<g>
	<g>
		<g>
			<path class="st0" d="M148.6,448c-22.6,0-43.9-8.8-59.8-24.8c-16-16-24.8-37.2-24.8-59.8c0-22.6,8.8-43.9,24.8-59.8l98.4-98.4
				c28.1-28.1,73.7-28.1,101.8,0c8.3,8.3,8.3,21.8,0,30.2c-8.3,8.3-21.8,8.3-30.2,0c-11.4-11.4-30-11.4-41.4,0L119,333.8
				c-7.9,7.9-12.3,18.5-12.3,29.7s4.4,21.7,12.3,29.6c15.9,15.9,43.5,15.9,59.3,0l41.9-41.9c8.3-8.3,21.8-8.3,30.2,0
				c8.3,8.3,8.3,21.8,0,30.2l-41.9,41.9C192.5,439.2,171.2,448,148.6,448z"/>
		</g>
		<g>
			<path class="st0" d="M273.9,327.9c-18.4,0-36.9-7-50.9-21c-8.3-8.3-8.3-21.8,0-30.2c8.3-8.3,21.8-8.3,30.2,0
				c11.4,11.4,30,11.4,41.4,0l98.4-98.4c7.9-7.9,12.3-18.5,12.3-29.7s-4.4-21.7-12.3-29.7c-16.3-16.4-42.9-16.4-59.3,0l-41.9,41.9
				c-8.3,8.3-21.8,8.3-30.2,0c-8.3-8.3-8.3-21.8,0-30.2l41.9-41.9c33-33,86.6-33,119.6,0c16,16,24.8,37.2,24.8,59.8
				s-8.8,43.9-24.8,59.8l-98.4,98.4C310.8,320.9,292.3,327.9,273.9,327.9z"/>
		</g>
	</g>
</g>
</svg>
