<?xml version="1.0" encoding="utf-8"?>
<!-- Generator: Adobe Illustrator 26.2.1, SVG Export Plug-In . SVG Version: 6.00 Build 0)  -->
<svg version="1.1" id="Layer_1" xmlns="http://www.w3.org/2000/svg" xmlns:xlink="http://www.w3.org/1999/xlink" x="0px" y="0px"
	 viewBox="0 0 512 512" style="enable-background:new 0 0 512 512;" xml:space="preserve">
<style type="text/css">
	.st0{fill:#FFFFFF;}
</style>
<g id="timer">
	<g>
		<g>
			<path class="st0" d="M330.5,192c0-41.2-33.5-74.7-74.7-74.7s-74.7,33.5-74.7,74.7s33.5,74.7,74.7,74.7S330.5,233.2,330.5,192z
				 M223.8,192c0-17.6,14.4-32,32-32s32,14.4,32,32s-14.4,32-32,32S223.8,209.6,223.8,192z"/>
			<path class="st0" d="M358.8,333.9c29.1-45.2,46.4-102.3,46.4-141.9c0-82.3-67-149.3-149.3-149.3s-149.3,67-149.3,149.3
				c0,39.5,17.3,96.6,46.4,141.9c-43.2,13.2-67.7,34.6-67.7,60.8c0,51.3,88.5,74.7,170.7,74.7s170.7-23.4,170.7-74.7
				C426.5,368.4,402,347.1,358.8,333.9z M255.8,85.3c58.8,0,106.7,47.9,106.7,106.7c0,62.7-52.7,170.7-106.7,170.7
				S149.1,254.7,149.1,192C149.1,133.2,197,85.3,255.8,85.3z M255.8,426.7c-82,0-125.4-23.5-128-31.6c0.9-3,13.6-15.8,53.9-24.7
				c21.4,21.2,46.4,35,74.1,35s52.8-13.8,74.1-35c40.3,8.9,53,21.7,53.9,24C381.2,403.2,337.8,426.7,255.8,426.7z"/>
		</g>
	</g>
</g>
</svg>
