<?xml version="1.0" encoding="utf-8"?>
<!-- Generator: Adobe Illustrator 26.2.1, SVG Export Plug-In . SVG Version: 6.00 Build 0)  -->
<svg version="1.1" id="icon" xmlns="http://www.w3.org/2000/svg" xmlns:xlink="http://www.w3.org/1999/xlink" x="0px" y="0px"
	 viewBox="0 0 512 512" style="enable-background:new 0 0 512 512;" xml:space="preserve">
<style type="text/css">
	.st0{fill:#FFFFFF;}
</style>
<g>
	<g>
		<path class="st0" d="M384.3,42.7H213.6c-23.5,0-42.7,19.1-42.7,42.7V128c0,11.8,9.6,21.3,21.3,21.3s21.3-9.6,21.3-21.3V85.3h170.7
			v341.3H213.6V384c0-11.8-9.6-21.3-21.3-21.3S171,372.2,171,384v42.7c0,23.5,19.1,42.7,42.7,42.7h170.7c23.5,0,42.7-19.1,42.7-42.7
			V85.3C427,61.8,407.8,42.7,384.3,42.7z"/>
		<path class="st0" d="M249.8,292.4c-8.3,8.3-8.3,21.8,0,30.2c4.2,4.2,9.6,6.2,15.1,6.2s10.9-2.1,15.1-6.2l51.5-51.5
			c8.3-8.3,8.3-21.8,0-30.2L280,189.4c-8.3-8.3-21.8-8.3-30.2,0c-8.3,8.3-8.3,21.8,0,30.2l15.1,15.1H106.7
			c-11.8,0-21.3,9.6-21.3,21.3s9.6,21.3,21.3,21.3h158.2L249.8,292.4z"/>
	</g>
</g>
</svg>
