<?xml version="1.0" encoding="utf-8"?>
<!-- Generator: Adobe Illustrator 26.2.1, SVG Export Plug-In . SVG Version: 6.00 Build 0)  -->
<svg version="1.1" id="like" xmlns="http://www.w3.org/2000/svg" xmlns:xlink="http://www.w3.org/1999/xlink" x="0px" y="0px"
	 viewBox="0 0 512 512" style="enable-background:new 0 0 512 512;" xml:space="preserve">
<style type="text/css">
	.st0{fill:#FFFFFF;}
</style>
<g>
	<g>
		<path class="st0" d="M320,362.7c-11.8,0-21.3,9.5-21.3,21.3v42.7H128V85.3h170.7V128c0,11.8,9.5,21.3,21.3,21.3
			s21.3-9.6,21.3-21.3V85.3c0-23.5-19.1-42.7-42.7-42.7H128c-23.5,0-42.7,19.1-42.7,42.7v341.3c0,23.5,19.1,42.7,42.7,42.7h170.7
			c23.5,0,42.7-19.1,42.7-42.7V384C341.3,372.2,331.8,362.7,320,362.7z"/>
		<path class="st0" d="M420.7,240.9l-51.5-51.5c-8.3-8.3-21.8-8.3-30.2,0c-8.3,8.3-8.3,21.8,0,30.2l15.1,15.1H196
			c-11.8,0-21.3,9.6-21.3,21.3c0,11.7,9.6,21.3,21.3,21.3h158.2L339,292.4c-8.3,8.3-8.3,21.8,0,30.2c4.2,4.2,9.6,6.2,15.1,6.2
			s10.9-2.1,15.1-6.2l51.5-51.5c4-4,6.2-9.4,6.2-15.1S424.7,244.9,420.7,240.9z"/>
	</g>
</g>
</svg>
