<?xml version="1.0" encoding="utf-8"?>
<!-- Generator: Adobe Illustrator 26.2.1, SVG Export Plug-In . SVG Version: 6.00 Build 0)  -->
<svg version="1.1" id="Layer_1" xmlns="http://www.w3.org/2000/svg" xmlns:xlink="http://www.w3.org/1999/xlink" x="0px" y="0px"
	 viewBox="0 0 512 512" style="enable-background:new 0 0 512 512;" xml:space="preserve">
<style type="text/css">
	.st0{fill:#FFFFFF;}
</style>
<g id="Download">
</g>
<path class="st0" d="M460.5,89.4c-5.6-4-12.8-5.1-19.2-2.9L320,126.8L198.8,86.4c-0.6-0.2-1.2,0-1.9-0.2c-1.6-0.4-3.2-0.4-4.9-0.4
	s-3.3,0-4.9,0.4c-0.6,0.1-1.2,0-1.8,0.2l-128,42.7c-8.7,2.9-14.6,11.1-14.6,20.2v256c0,6.9,3.3,13.3,8.9,17.3c3.7,2.6,8.1,4,12.5,4
	c2.3,0,4.5-0.4,6.8-1.1L192,385.1l121.2,40.4h0.1c2.2,0.7,4.4,1.1,6.7,1.1s4.5-0.4,6.7-1.1h0.1l128-42.7c8.7-2.9,14.6-11,14.6-20.2
	v-256C469.3,99.8,466,93.4,460.5,89.4z M298.7,241.7c-11.2-0.1-23.2-1.7-35.9-5.9c-16.9-5.6-33.6-7.4-49.4-6.9v-92.6l85.3,28.4
	V241.7z M85.3,164.7l85.3-28.4v99.4c-31.2,8.8-52.9,22.9-54.5,24c-9.8,6.5-12.4,19.7-5.9,29.5c4.1,6.2,10.9,9.5,17.8,9.5
	c4,0,8.1-1.1,11.7-3.5c0.3-0.2,12.6-8.1,30.9-14.7v66.9l-85.3,28.4L85.3,164.7L85.3,164.7z M213.3,271.5c11.7-0.5,23.9,0.7,35.9,4.7
	c17.5,5.8,34.1,8.1,49.4,8.1v91.4l-85.3-28.4V271.5z M426.7,347.3l-85.3,28.4v-97c33.5-9.2,54.8-26.4,56.3-27.6
	c9-7.5,10.3-20.8,2.8-29.9c-7.4-9.1-20.9-10.4-30-3c-0.9,0.7-11.7,9.2-29.1,15.8v-69.3l85.3-28.4V347.3z"/>
</svg>
