<?xml version="1.0" encoding="utf-8"?>
<!-- Generator: Adobe Illustrator 26.2.1, SVG Export Plug-In . SVG Version: 6.00 Build 0)  -->
<svg version="1.1" id="icon" xmlns="http://www.w3.org/2000/svg" xmlns:xlink="http://www.w3.org/1999/xlink" x="0px" y="0px"
	 viewBox="0 0 512 512" style="enable-background:new 0 0 512 512;" xml:space="preserve">
<style type="text/css">
	.st0{fill:#FFFFFF;}
</style>
<g>
	<g>
		<path class="st0" d="M256,341.3c47.1,0,85.3-38.3,85.3-85.3V128c0-47.1-38.3-85.3-85.3-85.3c-47.1,0-85.3,38.3-85.3,85.3v128
			C170.7,303.1,208.9,341.3,256,341.3z M213.3,213.3v-42.7c11.8,0,21.3-9.6,21.3-21.3S225,128,213.3,128c0-23.5,19.1-42.7,42.7-42.7
			c23.5,0,42.7,19.1,42.7,42.7c-11.8,0-21.3,9.6-21.3,21.3s9.5,21.3,21.3,21.3v42.7c-11.8,0-21.3,9.6-21.3,21.3s9.5,21.3,21.3,21.3
			c0,23.5-19.1,42.7-42.7,42.7c-23.5,0-42.7-19.1-42.7-42.7c11.8,0,21.3-9.6,21.3-21.3S225.1,213.3,213.3,213.3z"/>
		<path class="st0" d="M384,213.3c-11.8,0-21.3,9.6-21.3,21.3V256c0,58.8-47.9,106.7-106.7,106.7S149.3,314.8,149.3,256v-21.3
			c0-11.8-9.6-21.3-21.3-21.3s-21.3,9.6-21.3,21.3V256c0,75.1,55.8,137.2,128,147.6v23H192c-11.8,0-21.3,9.5-21.3,21.3
			s9.6,21.3,21.3,21.3h128c11.8,0,21.3-9.5,21.3-21.3s-9.5-21.3-21.3-21.3h-42.7v-23c72.2-10.4,128-72.6,128-147.6v-21.3
			C405.3,222.9,395.8,213.3,384,213.3z"/>
	</g>
</g>
</svg>
