<?xml version="1.0" encoding="utf-8"?>
<!-- Generator: Adobe Illustrator 26.2.1, SVG Export Plug-In . SVG Version: 6.00 Build 0)  -->
<svg version="1.1" id="moon" xmlns="http://www.w3.org/2000/svg" xmlns:xlink="http://www.w3.org/1999/xlink" x="0px" y="0px"
	 viewBox="0 0 512 512" style="enable-background:new 0 0 512 512;" xml:space="preserve">
<style type="text/css">
	.st0{fill:#FFFFFF;}
</style>
<g>
	<g>
		<path class="st0" d="M256,469.3c-117.6,0-213.3-95.7-213.3-213.3c0-93.3,59.7-175,148.6-203.3c9.3-2.9,19.5,0.8,24.6,9.1
			s4,19.1-2.9,26.1c-27.3,28.1-42.4,65-42.4,104.1c0,82.3,67,149.3,149.3,149.3c39,0,76-15,104.1-42.4c7-6.8,17.8-8,26.1-2.9
			c8.3,5.1,12.1,15.3,9.1,24.6C431,409.6,349.3,469.3,256,469.3z M137.1,133.4c-32.4,31.4-51.8,75.1-51.8,122.6
			c0,94.1,76.6,170.7,170.7,170.7c47.5,0,91.3-19.4,122.6-51.8c-18.7,6-38.5,9.1-58.6,9.1c-105.9,0-192-86.1-192-192
			C128,171.8,131.1,152.1,137.1,133.4z"/>
	</g>
</g>
</svg>
