<?xml version="1.0" encoding="utf-8"?>
<!-- Generator: Adobe Illustrator 26.2.1, SVG Export Plug-In . SVG Version: 6.00 Build 0)  -->
<svg version="1.1" id="Layer_1" xmlns="http://www.w3.org/2000/svg" xmlns:xlink="http://www.w3.org/1999/xlink" x="0px" y="0px"
	 viewBox="0 0 512 512" style="enable-background:new 0 0 512 512;" xml:space="preserve">
<style type="text/css">
	.st0{fill:#FFFFFF;}
</style>
<g id="icon">
	<g>
		<path class="st0" d="M446.6,419.7l-44.3-129.1c-0.1-0.1-0.1-0.3-0.1-0.4l-43.7-127.1c-3-8.6-11.1-14.4-20.2-14.4
			s-17.2,5.8-20.2,14.4L285,259.7l-11.7-34.1v-0.1l-50.5-147c-3-8.6-11.1-14.4-20.2-14.4c-9.1,0-17.2,5.8-20.2,14.4L65.2,419.7
			C63,426.2,64,433.4,68,439s10.5,8.9,17.4,8.9h164.8h69.6h106.7c6.9,0,13.4-3.3,17.4-8.9C447.8,433.5,448.8,426.2,446.6,419.7z
			 M352.6,277.3H324l14.3-41.6L352.6,277.3z M202.5,151l21.1,61.4h-42.2L202.5,151z M250.2,405.3h-135L166.8,255h71.5l51.6,150.3
			H250.2z M335,405.3l-27.5-80l1.8-5.3h57.9l29.3,85.3H335z"/>
	</g>
</g>
</svg>
