<?xml version="1.0" encoding="utf-8"?>
<!-- Generator: Adobe Illustrator 26.2.1, SVG Export Plug-In . SVG Version: 6.00 Build 0)  -->
<svg version="1.1" id="icon" xmlns="http://www.w3.org/2000/svg" xmlns:xlink="http://www.w3.org/1999/xlink" x="0px" y="0px"
	 viewBox="0 0 512 512" style="enable-background:new 0 0 512 512;" xml:space="preserve">
<style type="text/css">
	.st0{fill:#FFFFFF;}
</style>
<g>
	<path class="st0" d="M447.5,82.7c-0.1-0.9,0.1-1.7-0.1-2.6c-0.1-0.5-0.5-0.9-0.7-1.5c-0.5-1.4-1.1-2.7-1.9-4
		c-0.7-1.1-1.3-2.2-2.2-3.2c-0.9-1-1.9-1.9-3-2.7c-1.1-0.9-2.2-1.7-3.4-2.3c-1.1-0.6-2.3-0.9-3.6-1.3c-1.5-0.4-2.9-0.8-4.4-0.9
		c-0.5,0-1-0.3-1.5-0.3c-0.9,0-1.7,0.4-2.5,0.5c-0.9,0.1-1.8-0.1-2.6,0.1l-256,64c-0.6,0.1-1,0.5-1.5,0.7c-1.4,0.5-2.6,1.1-3.9,1.8
		c-1.2,0.7-2.3,1.3-3.3,2.2s-1.8,1.9-2.7,3s-1.6,2.1-2.3,3.4c-0.6,1.2-1,2.4-1.3,3.7c-0.4,1.4-0.7,2.8-0.9,4.2c0,0.6-0.3,1-0.3,1.6
		v174.6c-6.7-2.4-13.8-3.9-21.3-3.9c-35.3,0-64,28.7-64,64s28.7,64,64,64s64-28.7,64-64V251.3L405.3,198v61.9
		c-6.7-2.4-13.8-3.9-21.3-3.9c-35.3,0-64,28.7-64,64s28.7,64,64,64s64-28.7,64-64V85.3C448,84.4,447.6,83.6,447.5,82.7z M192,207.3
		V166l213.3-53.3V154L192,207.3z"/>
</g>
</svg>
