<?xml version="1.0" encoding="utf-8"?>
<!-- Generator: Adobe Illustrator 26.2.1, SVG Export Plug-In . SVG Version: 6.00 Build 0)  -->
<svg version="1.1" id="icon" xmlns="http://www.w3.org/2000/svg" xmlns:xlink="http://www.w3.org/1999/xlink" x="0px" y="0px"
	 viewBox="0 0 512 512" style="enable-background:new 0 0 512 512;" xml:space="preserve">
<style type="text/css">
	.st0{fill:#FFFFFF;}
</style>
<g>
	<path class="st0" d="M424.4,395.8c-12.5-25-19.1-52.9-19.1-80.8v-96.3c0-73.4-51-136.2-118.2-151.2c-3.3-14.2-15.9-24.9-31.1-24.9
		c-15.1,0-27.7,10.5-31.1,24.6c-27.2,5.7-52.4,19-72.9,38.9c-29.2,28.4-45.3,66.4-45.3,107.2V315c0,27.9-6.6,55.9-19.1,80.8
		c-3.3,6.6-2.9,14.5,0.9,20.8c3.9,6.3,10.8,10.1,18.1,10.1h106.7c0,23.6,19.1,42.7,42.7,42.7s42.7-19.1,42.7-42.7h106.7
		c7.4,0,14.2-3.8,18.1-10.1C427.4,410.3,427.7,402.4,424.4,395.8z M138.4,384c7.2-22.2,11-45.7,11-69V213.3
		c0-29.1,11.5-56.3,32.4-76.6s48.2-30.9,77.6-30.1c57,1.7,103.4,51.9,103.4,112V315c0,23.4,3.8,46.8,11,69H138.4z"/>
</g>
</svg>
