<?xml version="1.0" encoding="utf-8"?>
<!-- Generator: Adobe Illustrator 26.2.1, SVG Export Plug-In . SVG Version: 6.00 Build 0)  -->
<svg version="1.1" id="icon" xmlns="http://www.w3.org/2000/svg" xmlns:xlink="http://www.w3.org/1999/xlink" x="0px" y="0px"
	 viewBox="0 0 512 512" style="enable-background:new 0 0 512 512;" xml:space="preserve">
<style type="text/css">
	.st0{fill:#FFFFFF;}
</style>
<g>
	<g>
		<path class="st0" d="M405.3,240.2v-132c0-24.4-19.8-44.2-44.2-44.2h-253C83.8,64,64,83.8,64,108.2v181.3
			c0,24.4,19.8,44.2,44.2,44.2h105.3C215.1,397,267,448,330.7,448c64.7,0,117.3-52.6,117.3-117.3C448,294.3,431.4,261.8,405.3,240.2
			z M108.2,106.7h253c0.8,0,1.5,0.7,1.5,1.5V128h-256v-19.8C106.7,107.3,107.3,106.7,108.2,106.7z M106.7,289.5V170.7h256v47.2
			c-10.2-2.9-20.9-4.5-32-4.5c-50.8,0-94,32.5-110.3,77.7H108.2C107.3,291,106.7,290.4,106.7,289.5z M330.7,405.3
			c-41.2,0-74.7-33.5-74.7-74.7s33.5-74.7,74.7-74.7s74.7,33.5,74.7,74.7S371.8,405.3,330.7,405.3z"/>
		<path class="st0" d="M347.5,294l-32,32l-7.6-7.6c-8.3-8.3-21.8-8.3-30.2,0c-8.3,8.3-8.3,21.8,0,30.2l22.6,22.6
			c4.2,4.2,9.6,6.2,15.1,6.2s10.9-2.1,15.1-6.2l47.1-47c8.3-8.3,8.3-21.8,0-30.2C369.4,285.7,355.9,285.7,347.5,294z"/>
		<path class="st0" d="M234.7,213.3c0-11.8-9.6-21.3-21.3-21.3h-64c-11.8,0-21.3,9.6-21.3,21.3s9.6,21.3,21.3,21.3h64
			C225.1,234.7,234.7,225.1,234.7,213.3z"/>
	</g>
</g>
</svg>
