<?xml version="1.0" encoding="utf-8"?>
<!-- Generator: Adobe Illustrator 26.2.1, SVG Export Plug-In . SVG Version: 6.00 Build 0)  -->
<svg version="1.1" id="Layer_1" xmlns="http://www.w3.org/2000/svg" xmlns:xlink="http://www.w3.org/1999/xlink" x="0px" y="0px"
	 viewBox="0 0 512 512" style="enable-background:new 0 0 512 512;" xml:space="preserve">
<style type="text/css">
	.st0{fill:#FFFFFF;}
</style>
<g id="Grid">
</g>
<g id="Download">
	<g>
		<g>
			<path class="st0" d="M341.3,42.7H170.7c-23.5,0-42.7,19.1-42.7,42.7v341.3c0,23.5,19.1,42.7,42.7,42.7h170.7
				c23.5,0,42.7-19.1,42.7-42.7V85.3C384,61.8,364.9,42.7,341.3,42.7z M170.7,426.7V85.3h42.7c0,11.8,9.6,21.3,21.3,21.3H277
				c11.8,0,21.3-9.6,21.3-21.3h43.1v341.3H170.7V426.7z"/>
			<path class="st0" d="M298.3,362.7h-84.9c-11.8,0-21.3,9.5-21.3,21.3s9.6,21.3,21.3,21.3h84.9c11.8,0,21.3-9.5,21.3-21.3
				S310.1,362.7,298.3,362.7z"/>
		</g>
	</g>
</g>
</svg>
