<?xml version="1.0" encoding="utf-8"?>
<!-- Generator: Adobe Illustrator 26.2.1, SVG Export Plug-In . SVG Version: 6.00 Build 0)  -->
<svg version="1.1" id="plus" xmlns="http://www.w3.org/2000/svg" xmlns:xlink="http://www.w3.org/1999/xlink" x="0px" y="0px"
	 viewBox="0 0 512 512" style="enable-background:new 0 0 512 512;" xml:space="preserve">
<style type="text/css">
	.st0{fill:#FFFFFF;}
</style>
<g>
	<path class="st0" d="M448,318.6v-212c0-23.5-19.1-42.7-42.7-42.7H106.7C83.1,64,64,83.1,64,106.7v298.7c0,23.5,19.1,42.7,42.7,42.7
		h298.7c23.5,0,42.7-19.1,42.7-42.7V322C448.1,320.9,448.1,319.8,448,318.6z M405.3,106.7v161.9L360.8,224
		c-16.6-16.6-43.7-16.6-60.3,0L192,332.5l-13.2-13.2c-16.6-16.6-43.7-16.6-60.3,0l-11.8,11.8V106.7H405.3z M106.7,405.3v-13.8l42-42
		l13.2,13.2c16.6,16.6,43.7,16.6,60.3,0l108.5-108.5l74.7,74.7v76.5H106.7V405.3z"/>
	<path class="st0" d="M192,256c35.3,0,64-28.7,64-64s-28.7-64-64-64s-64,28.7-64,64S156.7,256,192,256z M192,170.7
		c11.8,0,21.3,9.6,21.3,21.3s-9.6,21.3-21.3,21.3s-21.3-9.6-21.3-21.3S180.2,170.7,192,170.7z"/>
</g>
</svg>
