<?xml version="1.0" encoding="utf-8"?>
<!-- Generator: Adobe Illustrator 26.2.1, SVG Export Plug-In . SVG Version: 6.00 Build 0)  -->
<svg version="1.1" id="icon" xmlns="http://www.w3.org/2000/svg" xmlns:xlink="http://www.w3.org/1999/xlink" x="0px" y="0px"
	 viewBox="0 0 512 512" style="enable-background:new 0 0 512 512;" xml:space="preserve">
<style type="text/css">
	.st0{fill:#FFFFFF;}
</style>
<g>
	<path class="st0" d="M434.7,204.9L307.1,77.3c-17.1-17.1-44.9-17.1-62.1,0l-60.9,60.9c-10,10-22.3,17.6-35.7,22.1L78,183.8
		c-7,2.3-12.3,8.1-14,15.3c-1.7,7.2,0.4,14.8,5.7,20l96.5,96.5l-96,96c-8.3,8.3-8.3,21.8,0,30.2c4.2,4.2,9.6,6.2,15.1,6.2
		s10.9-2.1,15.1-6.2l96-96l96.5,96.5c4,4,9.5,6.2,15.1,6.2c1.6,0,3.3-0.2,4.9-0.6c7.2-1.7,13-7,15.3-14l23.5-70.4
		c4.5-13.4,12.1-25.8,22.1-35.7l60.9-60.9C451.8,249.8,451.8,222,434.7,204.9z M343.6,297.6c-14.6,14.6-25.8,32.8-32.4,52.4
		l-12.6,37.6L124.3,213.3l37.7-12.5c19.6-6.5,37.8-17.7,52.4-32.4l62.6-60.9l127.5,129.2L343.6,297.6z"/>
</g>
</svg>
