<?xml version="1.0" encoding="utf-8"?>
<!-- Generator: Adobe Illustrator 26.2.1, SVG Export Plug-In . SVG Version: 6.00 Build 0)  -->
<svg version="1.1" id="icon" xmlns="http://www.w3.org/2000/svg" xmlns:xlink="http://www.w3.org/1999/xlink" x="0px" y="0px"
	 viewBox="0 0 512 512" style="enable-background:new 0 0 512 512;" xml:space="preserve">
<style type="text/css">
	.st0{fill:#FFFFFF;}
</style>
<g>
	<path class="st0" d="M405.3,213.3c11.8,0,21.3-9.6,21.3-21.3v-10.7c0-76.5-62.2-138.7-138.7-138.7s-138.7,62.2-138.7,138.7v15.4
		c0,12.7-0.7,25.3-1.6,37.9h-41c-11.8,0-21.3,9.6-21.3,21.3s9.6,21.3,21.3,21.3h35.9c-8.1,49.7-23.6,98.3-46.1,143.4l-8.9,17.8
		c-3.3,6.6-2.9,14.5,0.9,20.8c3.9,6.3,10.8,10.1,18.1,10.1h298.7c11.8,0,21.3-9.5,21.3-21.3s-9.5-21.3-21.3-21.3H141
		c22-47.2,37-97.8,44.8-149.3h91.6c11.8,0,21.3-9.6,21.3-21.3s-9.5-21.3-21.3-21.3h-86.8c0.9-12.6,1.5-25.3,1.5-37.9v-15.4
		c0-52.9,43.1-96,96-96s96,43.1,96,96V192C384,203.8,393.5,213.3,405.3,213.3z"/>
</g>
</svg>
