<?xml version="1.0" encoding="utf-8"?>
<!-- Generator: Adobe Illustrator 26.2.1, SVG Export Plug-In . SVG Version: 6.00 Build 0)  -->
<svg version="1.1" id="icon" xmlns="http://www.w3.org/2000/svg" xmlns:xlink="http://www.w3.org/1999/xlink" x="0px" y="0px"
	 viewBox="0 0 512 512" style="enable-background:new 0 0 512 512;" xml:space="preserve">
<style type="text/css">
	.st0{fill:#FFFFFF;}
</style>
<g>
	<g>
		<path class="st0" d="M207.7,448c-11.6,0-22.4-4.5-30.6-12.7L76.7,334.9c-8.2-8.1-12.7-19-12.7-30.6s4.5-22.4,12.7-30.6l197.1-197
			c8.2-8.2,19-12.7,30.6-12.7h100.4c23.8,0,43.2,19.4,43.2,43.2v100.4c0,11.4-4.6,22.5-12.7,30.6L238.2,435.3
			C230.1,443.5,219.2,448,207.7,448z M304.3,106.7L106.8,303.9l100.4,101.2L405.1,208c0.1-0.1,0.2-0.2,0.2-0.4V107.2L304.3,106.7z"
			/>
	</g>
	<g>
		<circle class="st0" cx="341.3" cy="170.7" r="21.3"/>
	</g>
</g>
</svg>
