<?xml version="1.0" encoding="utf-8"?>
<!-- Generator: Adobe Illustrator 26.2.1, SVG Export Plug-In . SVG Version: 6.00 Build 0)  -->
<svg version="1.1" id="clipboard" xmlns="http://www.w3.org/2000/svg" xmlns:xlink="http://www.w3.org/1999/xlink" x="0px" y="0px"
	 viewBox="0 0 512 512" style="enable-background:new 0 0 512 512;" xml:space="preserve">
<style type="text/css">
	.st0{fill:#FFFFFF;}
</style>
<g>
	<path class="st0" d="M426.7,298.7c-11.8,0-21.3,9.5-21.3,21.3v85.3H320c-11.8,0-21.3,9.5-21.3,21.3s9.5,21.3,21.3,21.3h85.3
		c23.5,0,42.7-19.1,42.7-42.7V320C448,308.2,438.5,298.7,426.7,298.7z"/>
	<path class="st0" d="M405.3,64H320c-11.8,0-21.3,9.6-21.3,21.3s9.5,21.3,21.3,21.3h85.3V192c0,11.8,9.5,21.3,21.3,21.3
		s21.3-9.6,21.3-21.3v-85.3C448,83.1,428.9,64,405.3,64z"/>
	<path class="st0" d="M85.3,213.3c11.8,0,21.3-9.6,21.3-21.3v-85.3H192c11.8,0,21.3-9.6,21.3-21.3S203.8,64,192,64h-85.3
		C83.1,64,64,83.1,64,106.7V192C64,203.8,73.6,213.3,85.3,213.3z"/>
	<path class="st0" d="M192,405.3h-85.3V320c0-11.8-9.6-21.3-21.3-21.3S64,308.2,64,320v85.3c0,23.5,19.1,42.7,42.7,42.7H192
		c11.8,0,21.3-9.5,21.3-21.3C213.3,414.9,203.8,405.3,192,405.3z"/>
	<path class="st0" d="M224,138.7h-64c-11.8,0-21.3,9.6-21.3,21.3v64c0,11.8,9.6,21.3,21.3,21.3h64c11.8,0,21.3-9.6,21.3-21.3v-64
		C245.3,148.2,235.8,138.7,224,138.7z M202.7,202.7h-21.3v-21.3h21.3V202.7z"/>
	<path class="st0" d="M224,266.7h-64c-11.8,0-21.3,9.6-21.3,21.3v64c0,11.8,9.6,21.3,21.3,21.3h64c11.8,0,21.3-9.5,21.3-21.3v-64
		C245.3,276.2,235.8,266.7,224,266.7z M202.7,330.7h-21.3v-21.3h21.3V330.7z"/>
	<path class="st0" d="M288,245.3h64c11.8,0,21.3-9.6,21.3-21.3v-64c0-11.8-9.5-21.3-21.3-21.3h-64c-11.8,0-21.3,9.6-21.3,21.3v64
		C266.7,235.8,276.2,245.3,288,245.3z M309.3,181.3h21.3v21.3h-21.3V181.3z"/>
	<path class="st0" d="M373.3,352c0-11.8-9.5-21.3-21.3-21.3h-42.7v-21.3H352c11.8,0,21.3-9.5,21.3-21.3s-9.5-21.3-21.3-21.3h-64
		c-11.8,0-21.3,9.6-21.3,21.3v64c0,11.8,9.6,21.3,21.3,21.3h64C363.8,373.3,373.3,363.8,373.3,352z"/>
</g>
</svg>
