<?xml version="1.0" encoding="utf-8"?>
<!-- Generator: Adobe Illustrator 26.2.1, SVG Export Plug-In . SVG Version: 6.00 Build 0)  -->
<svg version="1.1" id="like" xmlns="http://www.w3.org/2000/svg" xmlns:xlink="http://www.w3.org/1999/xlink" x="0px" y="0px"
	 viewBox="0 0 512 512" style="enable-background:new 0 0 512 512;" xml:space="preserve">
<style type="text/css">
	.st0{fill:#FFFFFF;}
</style>
<g>
	<g>
		<path class="st0" d="M256,469c-117.4,0-213-95.6-213-213S138.6,43,256,43s213,95.6,213,213S373.4,469,256,469z M256,85
			c-94.3,0-171,76.7-171,171s76.7,171,171,171s171-76.7,171-171S350.3,85,256,85z"/>
	</g>
	<g>
		<g>
			<path class="st0" d="M256.4,325c-11.6,0-21-9.4-21-21v-16c0-24,14.1-46.2,35.9-56.5c12.3-5.8,23.5-20.8,19.1-40.1
				c-2.8-12.4-13.1-22.6-25.5-25.5c-13.7-3.1-27.4,1.6-35.9,12.3c-7.2,9.1-20.4,10.6-29.5,3.4c-9.1-7.2-10.6-20.4-3.4-29.5
				c18.6-23.5,48.5-33.9,78.1-27.2c28.3,6.4,50.7,28.8,57.1,57.1c8.2,35.9-9.1,71.9-42.1,87.5c-7.2,3.4-11.8,10.6-11.8,18.5v16
				C277.4,315.6,268,325,256.4,325z"/>
		</g>
		<g>
			<circle class="st0" cx="256" cy="368" r="21.3"/>
		</g>
	</g>
</g>
</svg>
