<?xml version="1.0" encoding="utf-8"?>
<!-- Generator: Adobe Illustrator 26.2.1, SVG Export Plug-In . SVG Version: 6.00 Build 0)  -->
<svg version="1.1" id="remove" xmlns="http://www.w3.org/2000/svg" xmlns:xlink="http://www.w3.org/1999/xlink" x="0px" y="0px"
	 viewBox="0 0 512 512" style="enable-background:new 0 0 512 512;" xml:space="preserve">
<style type="text/css">
	.st0{fill:#FFFFFF;}
</style>
<g>
	<g>
		<path class="st0" d="M106.7,106.7h298.7c11.8,0,21.3-9.6,21.3-21.3S417.1,64,405.3,64H299.2c0-11.8-9.5-21.3-21.3-21.3h-43.7
			c-11.8,0-21.3,9.6-21.3,21.3H106.7c-11.8,0-21.3,9.6-21.3,21.3S94.9,106.7,106.7,106.7z"/>
		<path class="st0" d="M417.1,142.9c-8.1-9.5-20-14.9-32.5-14.9H127.3c-12.5,0-24.3,5.4-32.4,14.9s-11.7,22-9.7,34.4l40.2,256
			c3.3,20.9,21,36,42.1,36h176.8c21.2,0,38.9-15.2,42.2-36l40.2-256C428.8,165,425.2,152.4,417.1,142.9z M344.4,426.7H167.6
			l-40.2-256h257.3L344.4,426.7z"/>
		<path class="st0" d="M213.3,384c1.2,0,2.3-0.1,3.5-0.3c11.6-1.9,19.5-12.9,17.5-24.5l-21.3-128c-1.9-11.6-12.9-19.5-24.6-17.5
			c-11.6,1.9-19.5,12.9-17.5,24.6l21.3,128C194,376.6,203.1,384,213.3,384z"/>
		<path class="st0" d="M295.2,383.7c1.2,0.2,2.4,0.3,3.5,0.3c10.2,0,19.3-7.4,21-17.8l21.3-128c1.9-11.6-5.9-22.6-17.5-24.6
			c-11.6-1.9-22.6,5.9-24.5,17.5l-21.3,128C275.7,370.8,283.5,381.8,295.2,383.7z"/>
	</g>
</g>
</svg>
