<?xml version="1.0" encoding="utf-8"?>
<!-- Generator: Adobe Illustrator 26.2.1, SVG Export Plug-In . SVG Version: 6.00 Build 0)  -->
<svg version="1.1" id="plus" xmlns="http://www.w3.org/2000/svg" xmlns:xlink="http://www.w3.org/1999/xlink" x="0px" y="0px"
	 viewBox="0 0 512 512" style="enable-background:new 0 0 512 512;" xml:space="preserve">
<style type="text/css">
	.st0{fill:#FFFFFF;}
</style>
<g>
	<g>
		<path class="st0" d="M448,269.4c-11.8,0-21.3,9.5-21.3,21.3v42.7H115.2c-0.7,0-1.2,0.3-1.9,0.4l17-17c8.3-8.3,8.3-21.8,0-30.2
			s-21.8-8.3-30.2,0l-51.5,51.5c-8.3,8.3-8.3,21.8,0,30.2l51.5,51.5c4.2,4.2,9.6,6.2,15.1,6.2s10.9-2.1,15.1-6.2
			c8.3-8.3,8.3-21.8,0-30.2L116.7,376h310c23.5,0,42.7-19.1,42.7-42.7v-42.7C469.3,279,459.8,269.4,448,269.4z"/>
		<path class="st0" d="M64,241.1c11.8,0,21.3-9.6,21.3-21.3v-42.7h311.5c0.7,0,1.2-0.3,1.9-0.4l-17,17c-8.3,8.3-8.3,21.8,0,30.2
			c4.2,4.2,9.6,6.2,15.1,6.2s10.9-2.1,15.1-6.2l51.5-51.5c4-4,6.2-9.4,6.2-15.1s-2.2-11.1-6.2-15.1l-51.5-51.5
			c-8.3-8.3-21.8-8.3-30.2,0c-8.3,8.3-8.3,21.8,0,30.2l13.6,13.6h-310c-23.5,0-42.7,19.1-42.7,42.7v42.7
			C42.7,231.5,52.2,241.1,64,241.1z"/>
	</g>
</g>
</svg>
