<?xml version="1.0" encoding="utf-8"?>
<!-- Generator: Adobe Illustrator 26.2.1, SVG Export Plug-In . SVG Version: 6.00 Build 0)  -->
<svg version="1.1" id="icon" xmlns="http://www.w3.org/2000/svg" xmlns:xlink="http://www.w3.org/1999/xlink" x="0px" y="0px"
	 viewBox="0 0 512 512" style="enable-background:new 0 0 512 512;" xml:space="preserve">
<style type="text/css">
	.st0{fill:#FFFFFF;}
</style>
<g>
	<path class="st0" d="M405.3,154.4H137.1l54.1-54.1c8.3-8.3,8.3-21.8,0-30.2c-8.3-8.3-21.8-8.3-30.2,0l-90.5,90.6
		c-8.3,8.3-8.3,21.8,0,30.2l90.5,90.6c4.2,4.2,9.6,6.2,15.1,6.2s10.9-2.1,15.1-6.2c8.3-8.3,8.3-21.8,0-30.2L137,197h268.3v229.6
		c0,11.8,9.5,21.3,21.3,21.3s21.3-9.5,21.3-21.3V197C448,173.5,428.9,154.4,405.3,154.4z"/>
</g>
</svg>
