<?xml version="1.0" encoding="utf-8"?>
<!-- Generator: Adobe Illustrator 26.2.1, SVG Export Plug-In . SVG Version: 6.00 Build 0)  -->
<svg version="1.1" id="Layer_1" xmlns="http://www.w3.org/2000/svg" xmlns:xlink="http://www.w3.org/1999/xlink" x="0px" y="0px"
	 viewBox="0 0 512 512" style="enable-background:new 0 0 512 512;" xml:space="preserve">
<style type="text/css">
	.st0{fill:#FFFFFF;}
</style>
<g id="Grid">
</g>
<g id="security">
	<g>
		<g>
			<path class="st0" d="M256,469.3c-4.3,0-8.7-1.3-12.4-4C144.5,394.6,85.3,279.6,85.3,157.8v-35.1c0-18.9,12.7-35.8,30.9-41
				l128-36.6c7.7-2.2,15.8-2.2,23.4,0l128,36.6c18.2,5.2,31,22.1,31,41v35.1c0,121.8-59.2,236.8-158.3,307.5
				C264.7,468,260.3,469.3,256,469.3z M256,86.2l-128,36.6v35.1c0,102.9,47.6,200.2,128,263.5c80.4-63.3,128-160.7,128-263.5v-35.1
				L256,86.2z"/>
		</g>
		<g>
			<path class="st0" d="M234.7,293.3c-5.5,0-10.9-2.1-15.1-6.2l-32-32c-8.3-8.3-8.3-21.8,0-30.2c8.3-8.3,21.8-8.3,30.2,0l16.9,16.9
				l59.6-59.6c8.3-8.3,21.8-8.3,30.2,0c8.3,8.3,8.3,21.8,0,30.2l-74.7,74.7C245.6,291.2,240.1,293.3,234.7,293.3z"/>
		</g>
	</g>
</g>
</svg>
