<?xml version="1.0" encoding="utf-8"?>
<!-- Generator: Adobe Illustrator 26.2.1, SVG Export Plug-In . SVG Version: 6.00 Build 0)  -->
<svg version="1.1" id="Layer_1" xmlns="http://www.w3.org/2000/svg" xmlns:xlink="http://www.w3.org/1999/xlink" x="0px" y="0px"
	 viewBox="0 0 512 512" style="enable-background:new 0 0 512 512;" xml:space="preserve">
<style type="text/css">
	.st0{fill:#FFFFFF;}
</style>
<g>
	<g>
		<path class="st0" d="M64,160h111.2c8.3,18.8,27,32,48.8,32s40.6-13.2,48.8-32H448c11.8,0,21.3-9.6,21.3-21.3s-9.5-21.3-21.3-21.3
			H272.8c-8.3-18.8-27-32-48.8-32s-40.6,13.2-48.8,32H64c-11.8,0-21.3,9.6-21.3,21.3S52.2,160,64,160z M224,128
			c5.9,0,10.7,4.8,10.7,10.7s-4.8,10.7-10.7,10.7s-10.7-4.8-10.7-10.7S218.1,128,224,128z"/>
		<path class="st0" d="M448,352H208.8c-8.3-18.8-27-32-48.8-32s-40.6,13.2-48.8,32H64c-11.8,0-21.3,9.5-21.3,21.3
			s9.6,21.3,21.3,21.3h47.2c8.3,18.8,27,32,48.8,32s40.6-13.2,48.8-32H448c11.8,0,21.3-9.5,21.3-21.3S459.8,352,448,352z M160,384
			c-5.9,0-10.7-4.8-10.7-10.7s4.8-10.7,10.7-10.7s10.7,4.8,10.7,10.7S165.9,384,160,384z"/>
		<path class="st0" d="M448,234.7h-47.2c-8.3-18.8-27-32-48.8-32s-40.6,13.2-48.8,32H64c-11.8,0-21.3,9.6-21.3,21.3
			c0,11.7,9.6,21.3,21.3,21.3h239.2c8.2,18.8,27,32,48.8,32s40.6-13.2,48.8-32H448c11.8,0,21.3-9.6,21.3-21.3S459.8,234.7,448,234.7
			z M352,266.7c-5.9,0-10.7-4.8-10.7-10.7c0-5.9,4.8-10.7,10.7-10.7s10.7,4.8,10.7,10.7S357.9,266.7,352,266.7z"/>
	</g>
</g>
</svg>
