<?xml version="1.0" encoding="utf-8"?>
<!-- Generator: Adobe Illustrator 26.2.1, SVG Export Plug-In . SVG Version: 6.00 Build 0)  -->
<svg version="1.1" id="share" xmlns="http://www.w3.org/2000/svg" xmlns:xlink="http://www.w3.org/1999/xlink" x="0px" y="0px"
	 viewBox="0 0 512 512" style="enable-background:new 0 0 512 512;" xml:space="preserve">
<style type="text/css">
	.st0{fill:#FFFFFF;}
</style>
<g>
	<path class="st0" d="M362.7,277.3c-29.1,0-54.8,14.7-70.2,37L229.9,283c2.9-8.6,4.8-17.6,4.8-27.1s-1.9-18.5-4.8-27.1l62.6-31.3
		c15.4,22.3,41.1,37,70.2,37c47.1,0,85.3-38.3,85.3-85.3S409.7,64,362.7,64s-85.3,38.3-85.3,85.3c0,2.7,0.5,5.2,0.8,7.8L206.4,193
		c-15.1-13.7-35-22.3-57-22.3c-47.1,0-85.3,38.3-85.3,85.3c0,47.1,38.3,85.3,85.3,85.3c22,0,41.9-8.6,57-22.3l71.8,35.9
		c-0.2,2.6-0.8,5.1-0.8,7.8c0,47.1,38.3,85.3,85.3,85.3s85.3-38.3,85.3-85.3S409.7,277.3,362.7,277.3z M362.7,106.7
		c23.5,0,42.7,19.1,42.7,42.7S386.2,192,362.7,192S320,172.9,320,149.3S339.1,106.7,362.7,106.7z M149.3,298.7
		c-23.5,0-42.7-19.1-42.7-42.7c0-23.5,19.1-42.7,42.7-42.7S192,232.5,192,256S172.9,298.7,149.3,298.7z M362.7,405.3
		c-23.5,0-42.7-19.1-42.7-42.7c0-23.5,19.1-42.7,42.7-42.7c23.5,0,42.7,19.1,42.7,42.7C405.3,386.2,386.2,405.3,362.7,405.3z"/>
</g>
</svg>
