<?xml version="1.0" encoding="utf-8"?>
<!-- Generator: Adobe Illustrator 26.2.1, SVG Export Plug-In . SVG Version: 6.00 Build 0)  -->
<svg version="1.1" id="tree" xmlns="http://www.w3.org/2000/svg" xmlns:xlink="http://www.w3.org/1999/xlink" x="0px" y="0px"
	 viewBox="0 0 512 512" style="enable-background:new 0 0 512 512;" xml:space="preserve">
<style type="text/css">
	.st0{fill:#FFFFFF;}
</style>
<g>
	<path class="st0" d="M448,214.8c0-0.3-0.1-0.5-0.2-0.8c0.1-2.5-0.1-5-0.9-7.4L409.1,93.2C403.3,75.7,387,64,368.6,64H143.4
		c-18.4,0-34.7,11.7-40.5,29.2L65.1,206.6c-0.8,2.4-1,4.9-0.9,7.4c0,0.3-0.2,0.5-0.2,0.8C64,245,81.5,271,106.7,284v121.3
		c0,23.5,19.1,42.7,42.7,42.7H192c23.5,0,42.7-19.1,42.7-42.7v-42.7h42.7v42.7c0,23.5,19.1,42.7,42.7,42.7h42.7
		c23.5,0,42.7-19.1,42.7-42.7V284C430.5,271,448,245,448,214.8z M369.8,250.3c-12.2,0-23-6.2-29.4-15.6h58.9
		C392.8,244.1,382,250.3,369.8,250.3z M142.2,250.3c-12.2,0-23-6.2-29.4-15.6h58.9C165.3,244.1,154.5,250.3,142.2,250.3z M217.2,192
		l14.2-85.3h49.2l14.2,85.3H217.2z M285.4,234.7c-6.4,9.4-17.2,15.6-29.4,15.6c-12.2,0-23-6.2-29.4-15.6H285.4z M397.1,192h-59
		l-14.2-85.3h44.8L397.1,192z M143.4,106.7h44.8L173.9,192h-59L143.4,106.7z M320,405.3v-42.7c0-23.5-19.1-42.7-42.7-42.7h-42.7
		c-23.5,0-42.7,19.1-42.7,42.7v42.7h-42.7v-113c19.6-1.8,37-10.6,49.8-24.2c14.3,15.2,34.4,24.9,56.9,24.9s42.6-9.7,56.9-24.9
		c12.7,13.6,30.2,22.4,49.8,24.2v113.1H320V405.3z"/>
</g>
</svg>
