<?xml version="1.0" encoding="utf-8"?>
<!-- Generator: Adobe Illustrator 26.2.1, SVG Export Plug-In . SVG Version: 6.00 Build 0)  -->
<svg version="1.1" id="megaphone" xmlns="http://www.w3.org/2000/svg" xmlns:xlink="http://www.w3.org/1999/xlink" x="0px" y="0px"
	 viewBox="0 0 512 512" style="enable-background:new 0 0 512 512;" xml:space="preserve">
<style type="text/css">
	.st0{fill:#FFFFFF;}
</style>
<g>
	<g>
		<path class="st0" d="M128,170.7H85.3c-23.5,0-42.7,19.1-42.7,42.7v85.3c0,23.5,19.1,42.7,42.7,42.7H128c11.8,0,21.3-9.5,21.3-21.3
			V192C149.3,180.2,139.8,170.7,128,170.7z M106.7,298.7H85.3v-85.3h21.3L106.7,298.7L106.7,298.7z"/>
		<path class="st0" d="M307.9,87.4c-7.4-3.5-16.2-2.6-22.6,2.6l-106.7,85.3c-5.1,4-8,10.2-8,16.7v128c0,6.5,2.9,12.6,8,16.7
			L285.3,422c3.9,3.1,8.6,4.7,13.3,4.7c3.1,0,6.3-0.7,9.2-2.1c7.4-3.6,12.1-11,12.1-19.2V106.7C320,98.5,315.3,91,307.9,87.4z
			 M277.3,360.9l-64-51.2V202.2l64-51.2V360.9z"/>
		<path class="st0" d="M435.5,256l27.6-27.6c8.3-8.3,8.3-21.8,0-30.2c-8.3-8.3-21.8-8.3-30.2,0l-27.6,27.6l-27.6-27.6
			c-8.3-8.3-21.8-8.3-30.2,0c-8.3,8.3-8.3,21.8,0,30.2l27.6,27.6l-27.6,27.6c-8.3,8.3-8.3,21.8,0,30.2c4.2,4.2,9.6,6.2,15.1,6.2
			s10.9-2.1,15.1-6.2l27.6-27.6l27.6,27.6c4.2,4.2,9.6,6.2,15.1,6.2s10.9-2.1,15.1-6.2c8.3-8.3,8.3-21.8,0-30.2L435.5,256z"/>
	</g>
</g>
</svg>
