<?xml version="1.0" encoding="utf-8"?>
<!-- Generator: Adobe Illustrator 26.2.1, SVG Export Plug-In . SVG Version: 6.00 Build 0)  -->
<svg version="1.1" id="megaphone" xmlns="http://www.w3.org/2000/svg" xmlns:xlink="http://www.w3.org/1999/xlink" x="0px" y="0px"
	 viewBox="0 0 512 512" style="enable-background:new 0 0 512 512;" xml:space="preserve">
<style type="text/css">
	.st0{fill:#FFFFFF;}
</style>
<g>
	<g>
		<path class="st0" d="M128,341.3H85.3c-23.5,0-42.7-19.1-42.7-42.7v-85.3c0-23.5,19.1-42.7,42.7-42.7H128
			c11.8,0,21.3,9.6,21.3,21.3v128C149.3,331.8,139.8,341.3,128,341.3z M85.3,213.3v85.3h21.3v-85.3H85.3z"/>
	</g>
	<g>
		<path class="st0" d="M298.7,426.7c-4.8,0-9.5-1.6-13.3-4.7l-106.7-85.3c-5.1-4.1-8-10.2-8-16.7V192c0-6.5,2.9-12.6,8-16.7
			L285.3,90c6.4-5.1,15.2-6.1,22.6-2.6c7.4,3.6,12.1,11,12.1,19.2v298.7c0,8.2-4.7,15.7-12.1,19.2C305,426,301.8,426.7,298.7,426.7z
			 M213.3,309.8l64,51.2V151.1l-64,51.2L213.3,309.8L213.3,309.8z"/>
	</g>
	<g>
		<path class="st0" d="M362.8,390.2c-9.3,0-17.8-6.1-20.5-15.5c-3.2-11.3,3.4-23.1,14.7-26.4c41.1-11.7,69.7-49.6,69.7-92.4
			s-28.7-80.8-69.8-92.4c-11.4-3.2-17.9-15-14.7-26.3c3.2-11.4,15.1-17.9,26.3-14.7c59.4,16.8,100.9,71.7,100.9,133.5
			c0,61.7-41.4,116.6-100.7,133.4C366.6,390,364.7,390.2,362.8,390.2z"/>
	</g>
	<g>
		<path class="st0" d="M362.5,320.1c-6.5,0-12.9-3-17.1-8.6c-7-9.5-5.1-22.8,4.4-29.9c8.2-6.1,12.9-15.5,12.9-25.7
			s-4.7-19.6-13-25.7c-9.5-7-11.5-20.4-4.5-29.8c7-9.5,20.4-11.4,29.8-4.4c19,14,30.3,36.5,30.3,60s-11.2,45.9-30.1,59.9
			C371.4,318.8,366.9,320.1,362.5,320.1z"/>
	</g>
</g>
</svg>
