<?xml version="1.0" encoding="utf-8"?>
<!-- Generator: Adobe Illustrator 26.2.1, SVG Export Plug-In . SVG Version: 6.00 Build 0)  -->
<svg version="1.1" id="Layer_1" xmlns="http://www.w3.org/2000/svg" xmlns:xlink="http://www.w3.org/1999/xlink" x="0px" y="0px"
	 viewBox="0 0 512 512" style="enable-background:new 0 0 512 512;" xml:space="preserve">
<style type="text/css">
	.st0{fill:#FFFFFF;}
</style>
<g id="Grid">
</g>
<g id="share">
	<g>
		<g>
			<path class="st0" d="M158.7,448c-8.7,0-17.4-2.7-24.8-8.1c-13.1-9.5-19.6-25.4-16.8-41.3l1.7-10c2-11.6,13-19.5,24.6-17.4
				c11.6,2,19.4,13,17.4,24.6l-1.7,10l77.2-41.4c12.4-6.5,27-6.4,39.3,0l77.9,41L338,319.1c-2.3-13.7,2.2-27.7,12.1-37.4l63-61.4
				l-86.8-11.9c-13.8-2-25.6-10.6-31.8-23.1l-38.9-78.9l-38.2,78.9c-6.1,12.5-18,21.1-31.8,23.1l-87,12.6l63.2,60.7
				c10,9.7,14.5,23.7,12.1,37.4l-1.7,10.2c-2,11.6-12.9,19.4-24.6,17.4c-11.6-2-19.4-13-17.4-24.6l1.8-10.2l-62.8-61
				c-11.6-11.3-15.7-27.9-10.7-43.3s18.1-26.4,34.1-28.8l87-12.6l38.6-78.6C225.3,73,239.8,64,256,64s30.7,9,37.9,23.5l38.9,78.9
				l86.7,12.4c16,2.3,29.1,13.4,34.1,28.8s0.9,32-10.7,43.3l-63,61.4l15,86.3c2.8,16-3.7,31.8-16.8,41.3
				c-13.1,9.6-30.2,10.8-44.5,3.2l-77.8-40.9l-77.4,40.9C172.1,446.4,165.4,448,158.7,448z"/>
		</g>
	</g>
</g>
</svg>
