<?xml version="1.0" encoding="utf-8"?>
<!-- Generator: Adobe Illustrator 26.2.1, SVG Export Plug-In . SVG Version: 6.00 Build 0)  -->
<svg version="1.1" id="Layer_1" xmlns="http://www.w3.org/2000/svg" xmlns:xlink="http://www.w3.org/1999/xlink" x="0px" y="0px"
	 viewBox="0 0 512 512" style="enable-background:new 0 0 512 512;" xml:space="preserve">
<style type="text/css">
	.st0{fill:#FFFFFF;}
</style>
<g>
	<g>
		<path class="st0" d="M448,106.7C448,82,430.1,64,405.3,64H106.7C81.9,64,64,81.9,64,106.7v298.7c0,24.7,17.9,42.7,42.7,42.7h192
			c2.9,0,5.6-0.6,8.2-1.7s4.9-2.7,6.9-4.6l127.9-127.9c2-2,3.5-4.3,4.6-6.9s1.7-5.4,1.7-8.2L448,106.7L448,106.7z M106.7,106.7
			h298.7v170.7H320c-23.1,0-40.1,15.7-42.2,37.9c-24.4,6.3-51.7,1.8-73.9-13c-9.8-6.5-23.1-3.9-29.6,5.9s-3.9,23,5.9,29.6
			c22.8,15.2,49.4,23,75.8,23c7.2,0,14.3-0.7,21.4-1.9v46.5H106.7V106.7z M320,320h55.2L320,375.2"/>
		<circle class="st0" cx="192" cy="192" r="21.3"/>
		<circle class="st0" cx="320" cy="192" r="21.3"/>
	</g>
</g>
</svg>
