<?xml version="1.0" encoding="utf-8"?>
<!-- Generator: Adobe Illustrator 26.2.1, SVG Export Plug-In . SVG Version: 6.00 Build 0)  -->
<svg version="1.1" id="sun" xmlns="http://www.w3.org/2000/svg" xmlns:xlink="http://www.w3.org/1999/xlink" x="0px" y="0px"
	 viewBox="0 0 512 512" style="enable-background:new 0 0 512 512;" xml:space="preserve">
<style type="text/css">
	.st0{fill:#FFFFFF;}
</style>
<g>
	<g>
		<path class="st0" d="M256,384c-70.6,0-128-57.4-128-128s57.4-128,128-128s128,57.4,128,128S326.6,384,256,384z M256,170.7
			c-47.1,0-85.3,38.3-85.3,85.3c0,47.1,38.3,85.3,85.3,85.3c47.1,0,85.3-38.3,85.3-85.3C341.3,208.9,303.1,170.7,256,170.7z"/>
	</g>
	<g>
		<path class="st0" d="M85.3,277.3H64c-11.8,0-21.3-9.6-21.3-21.3s9.6-21.3,21.3-21.3h21.3c11.8,0,21.3,9.6,21.3,21.3
			S97.1,277.3,85.3,277.3z"/>
	</g>
	<g>
		<path class="st0" d="M448,277.3h-21.3c-11.8,0-21.3-9.6-21.3-21.3s9.5-21.3,21.3-21.3H448c11.8,0,21.3,9.6,21.3,21.3
			S459.8,277.3,448,277.3z"/>
	</g>
	<g>
		<path class="st0" d="M256,469.3c-11.8,0-21.3-9.5-21.3-21.3v-21.3c0-11.8,9.6-21.3,21.3-21.3c11.7,0,21.3,9.5,21.3,21.3V448
			C277.3,459.8,267.8,469.3,256,469.3z"/>
	</g>
	<g>
		<path class="st0" d="M256,106.7c-11.8,0-21.3-9.6-21.3-21.3V64c0-11.8,9.6-21.3,21.3-21.3c11.7,0,21.3,9.6,21.3,21.3v21.3
			C277.3,97.1,267.8,106.7,256,106.7z"/>
	</g>
	<g>
		<path class="st0" d="M391.8,413.1c-5.5,0-10.9-2.1-15.1-6.2l-15.1-15.1c-8.3-8.3-8.3-21.8,0-30.2c8.3-8.3,21.8-8.3,30.2,0
			l15.1,15.1c8.3,8.3,8.3,21.8,0,30.2C402.7,411,397.2,413.1,391.8,413.1z"/>
	</g>
	<g>
		<path class="st0" d="M135.3,156.7c-5.5,0-10.9-2.1-15.1-6.2l-15.1-15.1c-8.3-8.3-8.3-21.8,0-30.2s21.8-8.3,30.2,0l15.1,15.1
			c8.3,8.3,8.3,21.8,0,30.2C146.2,154.6,140.8,156.7,135.3,156.7z"/>
	</g>
	<g>
		<path class="st0" d="M120.2,413.1c-5.5,0-10.9-2.1-15.1-6.2c-8.3-8.3-8.3-21.8,0-30.2l15.1-15.1c8.3-8.3,21.8-8.3,30.2,0
			c8.3,8.3,8.3,21.8,0,30.2l-15.1,15.1C131.2,411,125.7,413.1,120.2,413.1z"/>
	</g>
	<g>
		<path class="st0" d="M376.7,156.7c-5.5,0-10.9-2.1-15.1-6.2c-8.3-8.3-8.3-21.8,0-30.2l15.1-15.1c8.3-8.3,21.8-8.3,30.2,0
			c8.3,8.3,8.3,21.8,0,30.2l-15.1,15.1C387.6,154.6,382.1,156.7,376.7,156.7z"/>
	</g>
</g>
</svg>
