<?xml version="1.0" encoding="utf-8"?>
<!-- Generator: Adobe Illustrator 26.2.1, SVG Export Plug-In . SVG Version: 6.00 Build 0)  -->
<svg version="1.1" id="support" xmlns="http://www.w3.org/2000/svg" xmlns:xlink="http://www.w3.org/1999/xlink" x="0px" y="0px"
	 viewBox="0 0 512 512" style="enable-background:new 0 0 512 512;" xml:space="preserve">
<style type="text/css">
	.st0{fill:#FFFFFF;}
</style>
<g>
	<path class="st0" d="M405.3,170.7H382C371.9,110.2,319.3,64,256,64s-115.9,46.2-126.1,106.7h-23.3c-23.5,0-42.7,19.1-42.7,42.7v64
		c0,23.5,19.1,42.7,42.7,42.7h42.7c11.8,0,21.3-9.5,21.3-21.3V192c0-47.1,38.3-85.3,85.3-85.3c47.1,0,85.3,38.3,85.3,85.3v106.7
		c0,35.7-22,66.2-53.2,78.9c-7.8-9.1-19.3-14.9-32.2-14.9c-23.5,0-42.7,19.1-42.7,42.7c0,23.5,19.1,42.7,42.7,42.7
		c18.3,0,33.8-11.6,39.8-27.8c44.6-14.6,78.3-53.1,86.2-100.2h23.3c23.5,0,42.7-19.1,42.7-42.7v-64
		C448,189.8,428.9,170.7,405.3,170.7z M106.6,213.3L106.6,213.3H128v64h-21.3L106.6,213.3z M384,277.3v-64h21.3v64H384z"/>
</g>
</svg>
