<?xml version="1.0" encoding="utf-8"?>
<!-- Generator: Adobe Illustrator 26.2.1, SVG Export Plug-In . SVG Version: 6.00 Build 0)  -->
<svg version="1.1" id="icon" xmlns="http://www.w3.org/2000/svg" xmlns:xlink="http://www.w3.org/1999/xlink" x="0px" y="0px"
	 viewBox="0 0 512 512" style="enable-background:new 0 0 512 512;" xml:space="preserve">
<style type="text/css">
	.st0{fill:#FFFFFF;}
</style>
<g>
	<g>
		<path class="st0" d="M448,234.7c11.8,0,21.3-9.6,21.3-21.3v-64c0-11.8-9.5-21.3-21.3-21.3H64c-11.8,0-21.3,9.6-21.3,21.3v64
			c0,11.8,9.6,21.3,21.3,21.3c11.8,0,21.3,9.6,21.3,21.3c0,11.8-9.6,21.3-21.3,21.3c-11.8,0-21.3,9.5-21.3,21.3v64
			c0,11.8,9.6,21.3,21.3,21.3h384c11.8,0,21.3-9.5,21.3-21.3v-64c0-11.8-9.5-21.3-21.3-21.3s-21.3-9.6-21.3-21.3
			C426.7,244.2,436.2,234.7,448,234.7z M426.7,195.7c-24.8,8.8-42.7,32.5-42.7,60.3s17.8,51.5,42.7,60.4v25H213.3
			c0-11.8-9.6-21.3-21.3-21.3s-21.3,9.5-21.3,21.3H85.3v-25c24.8-8.8,42.7-32.5,42.7-60.4s-17.8-51.5-42.7-60.3v-25h85.3
			c0,11.8,9.6,21.3,21.3,21.3s21.3-9.6,21.3-21.3h213.3v25H426.7z"/>
		<path class="st0" d="M192,213.3c-11.8,0-21.3,9.6-21.3,21.3v42.7c0,11.8,9.6,21.3,21.3,21.3s21.3-9.5,21.3-21.3v-42.7
			C213.3,222.9,203.8,213.3,192,213.3z"/>
	</g>
</g>
</svg>
