<?xml version="1.0" encoding="utf-8"?>
<!-- Generator: Adobe Illustrator 26.2.1, SVG Export Plug-In . SVG Version: 6.00 Build 0)  -->
<svg version="1.1" id="timer" xmlns="http://www.w3.org/2000/svg" xmlns:xlink="http://www.w3.org/1999/xlink" x="0px" y="0px"
	 viewBox="0 0 512 512" style="enable-background:new 0 0 512 512;" xml:space="preserve">
<style type="text/css">
	.st0{fill:#FFFFFF;}
</style>
<g>
	<g>
		<path class="st0" d="M399,154.7l8.9-8.4c8.6-8.1,9-21.6,0.9-30.2s-21.6-9-30.1-0.9l-9.5,8.9c-15.9-12.8-34-22.8-53.5-29.7
			c1.4-2.8,2.3-5.9,2.3-9.2c0-11.8-9.5-21.3-21.3-21.3H217c-11.8,0-21.3,9.6-21.3,21.3c0,3,0.6,5.8,1.8,8.4
			C125.4,118.1,73.4,186,73.4,266c0,100.3,81.6,182,182,182s182-81.6,182-182C437.3,224.1,422.9,185.5,399,154.7z M276.1,403.6
			c-1.5-10.3-10-18.4-20.7-18.4s-19.2,8-20.7,18.4c-60.2-9-107.8-56.6-116.8-116.8c10.3-1.5,18.4-10,18.4-20.7
			c0-10.7-8-19.2-18.4-20.7c9-60.2,56.6-107.8,116.8-116.8c1.5,10.3,10,18.4,20.7,18.4s19.2-8,20.7-18.4
			c60.2,9,107.8,56.6,116.8,116.8c-10.3,1.5-18.4,10-18.4,20.7c0,10.7,8,19.2,18.4,20.7C383.9,347,336.3,394.6,276.1,403.6z"/>
		<path class="st0" d="M255.4,184.5c-11.8,0-21.3,9.6-21.3,21.3V266c0,11.8,9.6,21.3,21.3,21.3c11.7,0,21.3-9.5,21.3-21.3v-60.2
			C276.7,194,267.2,184.5,255.4,184.5z"/>
	</g>
</g>
</svg>
