<?xml version="1.0" encoding="utf-8"?>
<!-- Generator: Adobe Illustrator 26.2.1, SVG Export Plug-In . SVG Version: 6.00 Build 0)  -->
<svg version="1.1" id="icon" xmlns="http://www.w3.org/2000/svg" xmlns:xlink="http://www.w3.org/1999/xlink" x="0px" y="0px"
	 viewBox="0 0 512 512" style="enable-background:new 0 0 512 512;" xml:space="preserve">
<style type="text/css">
	.st0{fill:#FFFFFF;}
</style>
<g>
	<g>
		<path class="st0" d="M220.1,235.8c-8.3-2.8-15.5-6-22.1-9.3c22.2-28.2,31-57.7,34.4-77.1H256c11.8,0,21.3-9.6,21.3-21.3
			s-9.6-21.3-21.3-21.3h-64V85.3c0-11.8-9.6-21.3-21.3-21.3s-21.3,9.6-21.3,21.3v21.3h-64c-11.8,0-21.3,9.6-21.3,21.3
			s9.6,21.3,21.3,21.3H189c-3.4,14.4-10.7,34-26.1,52.6c-10.6-10.4-15.3-18.8-15.8-19.7c-5.3-10.4-18.1-14.6-28.5-9.4
			c-10.5,5.3-14.8,18.1-9.5,28.6c0.5,1,6.9,13.4,21.8,28.5c-3.8,2.4-7.9,4.7-12.2,6.9c-10.5,5.3-14.8,18.1-9.5,28.6
			c3.7,7.5,11.3,11.8,19.1,11.8c3.2,0,6.5-0.7,9.5-2.2c10.7-5.3,20-11.3,28.5-17.6c11.5,6.9,24.7,13.5,40.6,18.8
			c2.2,0.8,4.5,1.1,6.8,1.1c8.9,0,17.3-5.6,20.2-14.6C237.3,251.6,231.3,239.5,220.1,235.8z"/>
		<path class="st0" d="M360.4,246.5c-7.2-14.5-30.9-14.5-38.2,0l-85.3,170.7c-5.3,10.5-1,23.4,9.5,28.6c10.6,5.2,23.4,1,28.6-9.5
			l15.4-30.9H392l15.4,30.9c3.8,7.5,11.3,11.8,19.1,11.8c3.2,0,6.5-0.7,9.5-2.2c10.5-5.3,14.8-18.1,9.5-28.6L360.4,246.5z
			 M311.9,362.7l29.5-59l29.5,59H311.9z"/>
		<path class="st0" d="M320,106.7h42.7v33.8l-6.2-6.2c-8.3-8.3-21.8-8.3-30.2,0s-8.3,21.8,0,30.2l42.7,42.7
			c4.2,4.2,9.6,6.2,15.1,6.2s10.9-2.1,15.1-6.2l42.7-42.7c8.3-8.3,8.3-21.8,0-30.2s-21.8-8.3-30.2,0l-6.2,6.2V85.3
			c0-11.8-9.5-21.3-21.3-21.3h-64c-11.8,0-21.3,9.6-21.3,21.3S308.2,106.7,320,106.7z"/>
		<path class="st0" d="M192,405.3h-42.7v-33.8l6.2,6.2c4.2,4.2,9.6,6.2,15.1,6.2s10.9-2.1,15.1-6.2c8.3-8.3,8.3-21.8,0-30.2
			L143,304.8c-8.3-8.3-21.8-8.3-30.2,0l-42.7,42.7c-8.3,8.3-8.3,21.8,0,30.2s21.8,8.3,30.2,0l6.2-6.2v55.2
			c0,11.8,9.6,21.3,21.3,21.3h64c11.8,0,21.3-9.5,21.3-21.3C213.3,414.9,203.8,405.3,192,405.3z"/>
	</g>
</g>
</svg>
