<?xml version="1.0" encoding="utf-8"?>
<!-- Generator: Adobe Illustrator 26.2.1, SVG Export Plug-In . SVG Version: 6.00 Build 0)  -->
<svg version="1.1" id="tree" xmlns="http://www.w3.org/2000/svg" xmlns:xlink="http://www.w3.org/1999/xlink" x="0px" y="0px"
	 viewBox="0 0 512 512" style="enable-background:new 0 0 512 512;" xml:space="preserve">
<style type="text/css">
	.st0{fill:#FFFFFF;}
</style>
<g>
	<g>
		<g>
			<path class="st0" d="M292.4,240.9c-8.3-8.3-21.8-8.3-30.2,0l-6.2,6.2l-27.6-27.6c-8.3-8.3-21.8-8.3-30.2,0
				c-8.3,8.3-8.3,21.8,0,30.2l36.4,36.4V448c0,11.8,9.6,21.3,21.3,21.3s21.3-9.5,21.3-21.3V286.2l15.1-15.1
				C300.8,262.8,300.8,249.2,292.4,240.9z"/>
			<path class="st0" d="M372.5,146.5C365.7,88.2,315.9,42.7,256,42.7S146.3,88.2,139.5,146.5c-33.7,21.4-54.1,58.2-54.1,98.9
				c0,62.5,49.8,117.3,106.7,117.3c11.8,0,21.3-9.5,21.3-21.3s-9.6-21.3-21.3-21.3c-29.6,0-64-32.6-64-74.7
				c0-28.6,15.9-54.2,41.4-66.9c7.2-3.6,11.8-10.9,11.9-18.9c0.3-40.9,33.8-74.2,74.7-74.2s74.4,33.3,74.7,74.2
				c0.1,8.1,4.7,15.4,11.9,19c25.6,12.6,41.4,38.2,41.4,66.8c0,42-34.4,74.7-64,74.7c-11.8,0-21.3,9.5-21.3,21.3s9.5,21.3,21.3,21.3
				c56.8,0,106.7-54.8,106.7-117.3C426.7,204.6,406.2,167.8,372.5,146.5z"/>
		</g>
	</g>
</g>
</svg>
