<?xml version="1.0" encoding="utf-8"?>
<!-- Generator: Adobe Illustrator 26.2.1, SVG Export Plug-In . SVG Version: 6.00 Build 0)  -->
<svg version="1.1" id="icon" xmlns="http://www.w3.org/2000/svg" xmlns:xlink="http://www.w3.org/1999/xlink" x="0px" y="0px"
	 viewBox="0 0 512 512" style="enable-background:new 0 0 512 512;" xml:space="preserve">
<style type="text/css">
	.st0{fill:#FFFFFF;}
</style>
<g>
	<g>
		<path class="st0" d="M462.6,258.8L436.2,206c-10.9-21.8-32.9-35.4-57.2-35.4h-59v-21.3c0-35.3-28.7-64-64-64H106.7
			c-35.3,0-64,28.7-64,64V320c0,28,18.2,51.7,43.4,60.3c3.5,26.1,25.6,46.4,52.6,46.4c25.8,0,47.3-18.3,52.3-42.7h107.7h22.4
			c5,24.3,26.5,42.7,52.3,42.7s47.3-18.3,52.3-42.7h1.1c23.5,0,42.7-19.1,42.7-42.7v-53.9C469.3,277.5,467,267.6,462.6,258.8z
			 M85.3,149.3c0-11.8,9.6-21.3,21.3-21.3H256c11.8,0,21.3,9.6,21.3,21.3V192v149.3H181c-9.7-12.9-25-21.3-42.4-21.3
			c-16.4,0-31,7.6-40.8,19.3c-7.4-3.4-12.6-10.7-12.6-19.3V149.3H85.3z M138.7,384c-5.9,0-10.7-4.8-10.7-10.7s4.8-10.7,10.7-10.7
			s10.7,4.8,10.7,10.7S144.6,384,138.7,384z M373.3,384c-5.9,0-10.7-4.8-10.7-10.7s4.8-10.7,10.7-10.7s10.7,4.8,10.7,10.7
			S379.2,384,373.3,384z M426.7,341.3h-10.9c-9.7-12.9-25-21.3-42.4-21.3s-32.7,8.5-42.4,21.3h-11v-128h59c8.1,0,15.4,4.5,19.1,11.8
			l26.4,52.7c1.5,3,2.2,6.2,2.2,9.5V341.3z"/>
		<path class="st0" d="M128,192h106.7c11.8,0,21.3-9.6,21.3-21.3s-9.6-21.3-21.3-21.3H128c-11.8,0-21.3,9.6-21.3,21.3
			S116.2,192,128,192z"/>
		<path class="st0" d="M128,256h106.7c11.8,0,21.3-9.6,21.3-21.3s-9.6-21.3-21.3-21.3H128c-11.8,0-21.3,9.6-21.3,21.3
			S116.2,256,128,256z"/>
	</g>
</g>
</svg>
