<?xml version="1.0" encoding="utf-8"?>
<!-- Generator: Adobe Illustrator 26.2.1, SVG Export Plug-In . SVG Version: 6.00 Build 0)  -->
<svg version="1.1" id="Layer_1" xmlns="http://www.w3.org/2000/svg" xmlns:xlink="http://www.w3.org/1999/xlink" x="0px" y="0px"
	 viewBox="0 0 512 512" style="enable-background:new 0 0 512 512;" xml:space="preserve">
<style type="text/css">
	.st0{fill:#FFFFFF;}
</style>
<g id="Download">
	<g>
		<g>
			<path class="st0" d="M322.6,232.1l-51.5-51.5c-8-8-22.2-8-30.2,0l-51.5,51.5c-8.3,8.3-8.3,21.8,0,30.2c8.3,8.3,21.8,8.3,30.2,0
				l15.1-15.1v158.2c0,11.8,9.6,21.3,21.3,21.3s21.3-9.5,21.3-21.3V247.2l15.1,15.1c4.2,4.2,9.6,6.2,15.1,6.2s10.9-2.1,15.1-6.2
				C330.9,253.9,330.9,240.4,322.6,232.1z"/>
			<path class="st0" d="M414.8,227.1c-9-80.5-76.4-141.7-158.8-141.7S106.2,146.7,97.2,227.1C63.7,245.8,42.7,281,42.7,320
				c0,58.8,47.9,106.7,106.7,106.7h21.3c11.8,0,21.3-9.5,21.3-21.3s-9.6-21.3-21.3-21.3h-21.3c-35.3,0-64-28.7-64-64
				c0-26.2,15.8-49.5,40.2-59.3c7.9-3.2,13.1-10.7,13.4-19.1c2-63.7,53.5-113.6,117.1-113.6c63.7,0,115.1,49.9,117.1,113.6
				c0.2,8.5,5.5,16,13.4,19.1c24.4,9.8,40.2,33.1,40.2,59.3c0,35.3-28.7,64-64,64h-21.2c-11.8,0-21.3,9.5-21.3,21.3
				s9.5,21.3,21.3,21.3h21.2c58.8,0,106.7-47.9,106.7-106.7C469.3,280.9,448.3,245.8,414.8,227.1z"/>
		</g>
	</g>
</g>
</svg>
