<?xml version="1.0" encoding="utf-8"?>
<!-- Generator: Adobe Illustrator 26.2.1, SVG Export Plug-In . SVG Version: 6.00 Build 0)  -->
<svg version="1.1" id="icon" xmlns="http://www.w3.org/2000/svg" xmlns:xlink="http://www.w3.org/1999/xlink" x="0px" y="0px"
	 viewBox="0 0 512 512" style="enable-background:new 0 0 512 512;" xml:space="preserve">
<style type="text/css">
	.st0{fill:#FFFFFF;}
</style>
<g>
	<path class="st0" d="M314.4,261.4L265.5,237l-48.9-24.4c-15.2-7.6-24.6-22.9-24.6-39.9c0-24.6,20-44.6,44.6-44.6h40.7
		c23.5,0,42.7,19.1,42.7,42.7c0,11.8,9.5,21.3,21.3,21.3s21.3-9.6,21.3-21.3c0-47.1-38.3-85.3-85.3-85.3V64
		c0-11.8-9.6-21.3-21.3-21.3s-21.3,9.6-21.3,21.3v21.5c-47.2,1.1-85.3,39.6-85.3,87.1c0,33.3,18.5,63.2,48.2,78l48.9,24.4l48.9,24.4
		c15.2,7.6,24.6,22.9,24.6,39.9c0,24.6-20,44.6-44.6,44.6h-40.7c-23.5,0-42.7-19.1-42.7-42.7c0-11.8-9.6-21.3-21.3-21.3
		s-21.3,9.5-21.3,21.3c0,47.1,38.3,85.3,85.3,85.3V448c0,11.8,9.6,21.3,21.3,21.3c11.7,0,21.3-9.5,21.3-21.3v-21.5
		c47.2-1.1,85.3-39.6,85.3-87.1C362.7,306.1,344.2,276.2,314.4,261.4z"/>
</g>
</svg>
