<?xml version="1.0" encoding="utf-8"?>
<!-- Generator: Adobe Illustrator 26.2.1, SVG Export Plug-In . SVG Version: 6.00 Build 0)  -->
<svg version="1.1" id="check" xmlns="http://www.w3.org/2000/svg" xmlns:xlink="http://www.w3.org/1999/xlink" x="0px" y="0px"
	 viewBox="0 0 512 512" style="enable-background:new 0 0 512 512;" xml:space="preserve">
<style type="text/css">
	.st0{fill:#FFFFFF;}
</style>
<g>
	<g>
		<path class="st0" d="M405.3,64H106.7C83.1,64,64,83.1,64,106.7V192v213.3c0,23.5,19.1,42.7,42.7,42.7h298.7
			c23.5,0,42.7-19.1,42.7-42.7V192v-85.3C448,83.1,428.9,64,405.3,64z M405.3,170.7h-28.2l-25.6-64h53.8L405.3,170.7L405.3,170.7z
			 M206.5,170.7l-25.6-64h39.4l25.6,64H206.5z M291.8,170.7l-25.6-64h39.4l25.6,64H291.8z M106.7,106.7h28.2l25.6,64h-53.8V106.7z
			 M106.7,405.3v-192H192c0,0,0,0,0.1,0c0,0,0,0,0.1,0h85.2c0,0,0,0,0.1,0c0,0,0,0,0.1,0h85.2c0,0,0,0,0.1,0c0,0,0,0,0.1,0h42.6v192
			H106.7z"/>
		<path class="st0" d="M298.7,290.9l-64-37c-14.2-8.2-32,2.1-32,18.5v73.9c0,16.4,17.8,26.7,32,18.5l64-37
			C312.9,319.6,312.9,299.1,298.7,290.9z"/>
	</g>
</g>
</svg>
