<?xml version="1.0" encoding="utf-8"?>
<!-- Generator: Adobe Illustrator 26.2.1, SVG Export Plug-In . SVG Version: 6.00 Build 0)  -->
<svg version="1.1" id="icon" xmlns="http://www.w3.org/2000/svg" xmlns:xlink="http://www.w3.org/1999/xlink" x="0px" y="0px"
	 viewBox="0 0 512 512" style="enable-background:new 0 0 512 512;" xml:space="preserve">
<style type="text/css">
	.st0{fill:#FFFFFF;}
</style>
<g>
	<g>
		<path class="st0" d="M256,234.7H106.7c-35.3,0-64,28.7-64,64v64c0,35.3,28.7,64,64,64H256c35.3,0,64-28.7,64-64v-64
			C320,263.4,291.3,234.7,256,234.7z M277.3,362.7c0,11.8-9.6,21.3-21.3,21.3H106.7c-11.8,0-21.3-9.6-21.3-21.3v-64
			c0-11.8,9.6-21.3,21.3-21.3H256c11.8,0,21.3,9.6,21.3,21.3V362.7z"/>
		<path class="st0" d="M451.4,239.1c-11.1-6.1-24.5-5.8-35.2,0.9l-54.8,34.3c-12.5,7.9-20,21.4-20,36.2v40.3
			c0,14.8,7.5,28.3,20,36.2l54.8,34.2c5.6,3.5,12,5.3,18.4,5.3c5.8,0,11.6-1.4,16.8-4.4c11.1-6.1,17.9-17.8,17.9-30.4V269.5
			C469.3,256.9,462.5,245.2,451.4,239.1z M426.7,377.5L384,350.8v-40.4l42.7-26.7V377.5z"/>
		<path class="st0" d="M106.7,213.3c35.3,0,64-28.7,64-64s-28.7-64-64-64s-64,28.7-64,64S71.4,213.3,106.7,213.3z M106.7,128
			c11.8,0,21.3,9.6,21.3,21.3c0,11.8-9.6,21.3-21.3,21.3s-21.3-9.6-21.3-21.3C85.3,137.6,94.9,128,106.7,128z"/>
		<path class="st0" d="M256,85.3c-35.3,0-64,28.7-64,64s28.7,64,64,64s64-28.7,64-64S291.3,85.3,256,85.3z M256,170.7
			c-11.8,0-21.3-9.6-21.3-21.3c0-11.8,9.6-21.3,21.3-21.3c11.8,0,21.3,9.6,21.3,21.3C277.3,161.1,267.8,170.7,256,170.7z"/>
		<circle class="st0" cx="234.7" cy="320" r="21.3"/>
	</g>
</g>
</svg>
