<?xml version="1.0" encoding="utf-8"?>
<!-- Generator: Adobe Illustrator 26.2.1, SVG Export Plug-In . SVG Version: 6.00 Build 0)  -->
<svg version="1.1" id="icon" xmlns="http://www.w3.org/2000/svg" xmlns:xlink="http://www.w3.org/1999/xlink" x="0px" y="0px"
	 viewBox="0 0 512 512" style="enable-background:new 0 0 512 512;" xml:space="preserve">
<style type="text/css">
	.st0{fill:#FFFFFF;}
</style>
<g>
	<g>
		<path class="st0" d="M256,426.7c-11.8,0-21.3-9.5-21.3-21.3V106.7c0-11.8,9.6-21.3,21.3-21.3c11.7,0,21.3,9.6,21.3,21.3v298.7
			C277.3,417.1,267.8,426.7,256,426.7z"/>
	</g>
	<g>
		<path class="st0" d="M192,346.7c-11.8,0-21.3-9.5-21.3-21.3V186.7c0-11.8,9.6-21.3,21.3-21.3s21.3,9.6,21.3,21.3v138.7
			C213.3,337.1,203.8,346.7,192,346.7z"/>
	</g>
	<g>
		<path class="st0" d="M320,346.7c-11.8,0-21.3-9.5-21.3-21.3V186.7c0-11.8,9.5-21.3,21.3-21.3s21.3,9.6,21.3,21.3v138.7
			C341.3,337.1,331.8,346.7,320,346.7z"/>
	</g>
	<g>
		<path class="st0" d="M448,288c-11.8,0-21.3-9.5-21.3-21.3v-21.3c0-11.8,9.5-21.3,21.3-21.3s21.3,9.6,21.3,21.3v21.3
			C469.3,278.5,459.8,288,448,288z"/>
	</g>
	<g>
		<path class="st0" d="M64,288c-11.8,0-21.3-9.5-21.3-21.3v-21.3c0-11.8,9.6-21.3,21.3-21.3s21.3,9.6,21.3,21.3v21.3
			C85.3,278.5,75.8,288,64,288z"/>
	</g>
	<g>
		<path class="st0" d="M128,304c-11.8,0-21.3-9.5-21.3-21.3v-53.3c0-11.8,9.6-21.3,21.3-21.3s21.3,9.6,21.3,21.3v53.3
			C149.3,294.5,139.8,304,128,304z"/>
	</g>
	<g>
		<path class="st0" d="M384,304c-11.8,0-21.3-9.5-21.3-21.3v-53.3c0-11.8,9.5-21.3,21.3-21.3s21.3,9.6,21.3,21.3v53.3
			C405.3,294.5,395.8,304,384,304z"/>
	</g>
</g>
</svg>
