<?xml version="1.0" encoding="utf-8"?>
<!-- Generator: Adobe Illustrator 26.2.1, SVG Export Plug-In . SVG Version: 6.00 Build 0)  -->
<svg version="1.1" id="icon" xmlns="http://www.w3.org/2000/svg" xmlns:xlink="http://www.w3.org/1999/xlink" x="0px" y="0px"
	 viewBox="0 0 512 512" style="enable-background:new 0 0 512 512;" xml:space="preserve">
<style type="text/css">
	.st0{fill:#FFFFFF;}
</style>
<g>
	<g>
		<circle class="st0" cx="256" cy="405.3" r="21.3"/>
	</g>
	<g>
		<path class="st0" d="M319.9,350.4c-4.8,0-9.7-1.6-13.7-5c-29.1-24.5-71.3-24.5-100.5,0c-9,7.6-22.5,6.4-30.1-2.6
			s-6.4-22.5,2.6-30.1c44.8-37.6,110.6-37.6,155.4,0c9,7.6,10.2,21,2.6,30.1C332.1,347.8,326,350.4,319.9,350.4z"/>
	</g>
	<g>
		<path class="st0" d="M384,274c-4.8,0-9.7-1.6-13.6-5c-32-26.7-72.6-41.5-114.4-41.5c-41.7,0-82.3,14.7-114.4,41.5
			c-9,7.6-22.5,6.3-30-2.7c-7.6-9.1-6.3-22.5,2.7-30.1c39.7-33.1,90-51.4,141.7-51.4s102,18.2,141.7,51.4c9,7.6,10.3,21,2.7,30.1
			C396.2,271.4,390.1,274,384,274z"/>
	</g>
	<g>
		<path class="st0" d="M447.8,197.9c-4.8,0-9.7-1.6-13.7-5C384.3,151.1,321,128,256,128s-128.3,23.1-178.1,64.9
			c-9,7.6-22.5,6.4-30.1-2.6s-6.4-22.5,2.6-30.1C108,111.9,181,85.3,256,85.3s148,26.6,205.6,74.9c9,7.6,10.2,21,2.6,30.1
			C460,195.3,453.9,197.9,447.8,197.9z"/>
	</g>
</g>
</svg>
